<mxfile host="app.diagrams.net" agent="Mozilla/5.0 (Macintosh; Intel Mac OS X 10.15; rv:138.0) Gecko/20100101 Firefox/138.0" version="27.0.9">
  <diagram id="Ht1M8jgEwFfnCIfOTk4-" name="Page-1">
    <mxGraphModel dx="2194" dy="1325" grid="1" gridSize="10" guides="1" tooltips="1" connect="1" arrows="1" fold="1" page="1" pageScale="1" pageWidth="827" pageHeight="1169" math="0" shadow="0">
      <root>
        <mxCell id="0" />
        <mxCell id="1" parent="0" />
        <mxCell id="UEzPUAAOIrF-is8g5C7q-2" value="Private Subnet" style="points=[[0,0],[0.25,0],[0.5,0],[0.75,0],[1,0],[1,0.25],[1,0.5],[1,0.75],[1,1],[0.75,1],[0.5,1],[0.25,1],[0,1],[0,0.75],[0,0.5],[0,0.25]];outlineConnect=0;gradientColor=none;html=1;whiteSpace=wrap;fontSize=12;fontStyle=0;shape=mxgraph.aws4.group;grIcon=mxgraph.aws4.group_aws_cloud_alt;strokeColor=#232F3E;fillColor=none;verticalAlign=top;align=left;spacingLeft=30;fontColor=#232F3E;dashed=0;container=1;pointerEvents=0;collapsible=0;recursiveResize=0;" parent="1" vertex="1">
          <mxGeometry x="585.5" y="280" width="630" height="486" as="geometry" />
        </mxCell>
        <mxCell id="UEzPUAAOIrF-is8g5C7q-15" value="FastAPI Server Docker" style="outlineConnect=0;fontColor=#232F3E;gradientColor=none;fillColor=#D05C17;strokeColor=none;dashed=0;verticalLabelPosition=bottom;verticalAlign=top;align=center;html=1;fontSize=12;fontStyle=0;aspect=fixed;pointerEvents=1;shape=mxgraph.aws4.container_1;labelBackgroundColor=#ffffff;" parent="UEzPUAAOIrF-is8g5C7q-2" vertex="1">
          <mxGeometry x="224.5" y="177.5" width="146.14" height="93" as="geometry" />
        </mxCell>
        <mxCell id="UEzPUAAOIrF-is8g5C7q-18" value="Amazon ECR" style="outlineConnect=0;fontColor=#232F3E;gradientColor=#F78E04;gradientDirection=north;fillColor=#D05C17;strokeColor=#ffffff;dashed=0;verticalLabelPosition=bottom;verticalAlign=top;align=center;html=1;fontSize=12;fontStyle=0;aspect=fixed;shape=mxgraph.aws4.resourceIcon;resIcon=mxgraph.aws4.ecr;" parent="UEzPUAAOIrF-is8g5C7q-2" vertex="1">
          <mxGeometry x="258.56999999999965" y="371" width="78" height="78" as="geometry" />
        </mxCell>
        <mxCell id="UEzPUAAOIrF-is8g5C7q-34" style="edgeStyle=orthogonalEdgeStyle;rounded=0;orthogonalLoop=1;jettySize=auto;html=1;strokeColor=#545B64;strokeWidth=2;endFill=0;endArrow=open;startArrow=none;" parent="UEzPUAAOIrF-is8g5C7q-2" source="UEzPUAAOIrF-is8g5C7q-15" target="UEzPUAAOIrF-is8g5C7q-18" edge="1">
          <mxGeometry relative="1" as="geometry" />
        </mxCell>
        <mxCell id="x_PVkYhebT0tfvJwBB1v-1" value="" style="sketch=0;outlineConnect=0;fontColor=#232F3E;gradientColor=none;fillColor=#C925D1;strokeColor=none;dashed=0;verticalLabelPosition=bottom;verticalAlign=top;align=center;html=1;fontSize=12;fontStyle=0;aspect=fixed;pointerEvents=1;shape=mxgraph.aws4.rds_postgresql_instance;" vertex="1" parent="UEzPUAAOIrF-is8g5C7q-2">
          <mxGeometry x="494.5" y="185" width="78" height="78" as="geometry" />
        </mxCell>
        <mxCell id="x_PVkYhebT0tfvJwBB1v-2" value="" style="edgeStyle=orthogonalEdgeStyle;html=1;endArrow=block;elbow=vertical;startArrow=none;endFill=1;strokeColor=#545B64;rounded=0;" edge="1" parent="UEzPUAAOIrF-is8g5C7q-2" source="UEzPUAAOIrF-is8g5C7q-15" target="x_PVkYhebT0tfvJwBB1v-1">
          <mxGeometry width="100" relative="1" as="geometry">
            <mxPoint x="264.5" y="215" as="sourcePoint" />
            <mxPoint x="364.5" y="225" as="targetPoint" />
          </mxGeometry>
        </mxCell>
        <mxCell id="x_PVkYhebT0tfvJwBB1v-3" value="Store Customer Info" style="text;html=1;align=center;verticalAlign=middle;resizable=0;points=[];autosize=1;strokeColor=none;fillColor=none;" vertex="1" parent="UEzPUAAOIrF-is8g5C7q-2">
          <mxGeometry x="370.64" y="233" width="130" height="30" as="geometry" />
        </mxCell>
        <mxCell id="x_PVkYhebT0tfvJwBB1v-15" value="AWS Cloud" style="points=[[0,0],[0.25,0],[0.5,0],[0.75,0],[1,0],[1,0.25],[1,0.5],[1,0.75],[1,1],[0.75,1],[0.5,1],[0.25,1],[0,1],[0,0.75],[0,0.5],[0,0.25]];outlineConnect=0;gradientColor=none;html=1;whiteSpace=wrap;fontSize=12;fontStyle=0;container=1;pointerEvents=0;collapsible=0;recursiveResize=0;shape=mxgraph.aws4.group;grIcon=mxgraph.aws4.group_aws_cloud;strokeColor=#232F3E;fillColor=none;verticalAlign=top;align=left;spacingLeft=30;fontColor=#232F3E;dashed=0;" vertex="1" parent="1">
          <mxGeometry x="100" y="190" width="1320" height="670" as="geometry" />
        </mxCell>
        <mxCell id="x_PVkYhebT0tfvJwBB1v-39" style="edgeStyle=orthogonalEdgeStyle;rounded=0;orthogonalLoop=1;jettySize=auto;html=1;" edge="1" parent="x_PVkYhebT0tfvJwBB1v-15" source="x_PVkYhebT0tfvJwBB1v-17" target="x_PVkYhebT0tfvJwBB1v-38">
          <mxGeometry relative="1" as="geometry" />
        </mxCell>
        <mxCell id="x_PVkYhebT0tfvJwBB1v-17" value="" style="sketch=0;outlineConnect=0;fontColor=#232F3E;gradientColor=none;fillColor=#8C4FFF;strokeColor=none;dashed=0;verticalLabelPosition=bottom;verticalAlign=top;align=center;html=1;fontSize=12;fontStyle=0;aspect=fixed;pointerEvents=1;shape=mxgraph.aws4.nat_gateway;" vertex="1" parent="x_PVkYhebT0tfvJwBB1v-15">
          <mxGeometry x="1190" y="20" width="82.5" height="82.5" as="geometry" />
        </mxCell>
        <mxCell id="x_PVkYhebT0tfvJwBB1v-18" value="" style="sketch=0;points=[[0,0,0],[0.25,0,0],[0.5,0,0],[0.75,0,0],[1,0,0],[0,1,0],[0.25,1,0],[0.5,1,0],[0.75,1,0],[1,1,0],[0,0.25,0],[0,0.5,0],[0,0.75,0],[1,0.25,0],[1,0.5,0],[1,0.75,0]];outlineConnect=0;fontColor=#232F3E;fillColor=#DD344C;strokeColor=#ffffff;dashed=0;verticalLabelPosition=bottom;verticalAlign=top;align=center;html=1;fontSize=12;fontStyle=0;aspect=fixed;shape=mxgraph.aws4.resourceIcon;resIcon=mxgraph.aws4.amplify;" vertex="1" parent="x_PVkYhebT0tfvJwBB1v-15">
          <mxGeometry x="60" y="260" width="78" height="78" as="geometry" />
        </mxCell>
        <mxCell id="x_PVkYhebT0tfvJwBB1v-19" value="" style="points=[];aspect=fixed;html=1;align=center;shadow=0;dashed=0;fillColor=#FF6A00;strokeColor=none;shape=mxgraph.alibaba_cloud.alb_application_load_balancer_01;" vertex="1" parent="x_PVkYhebT0tfvJwBB1v-15">
          <mxGeometry x="200" y="258" width="94.33" height="80" as="geometry" />
        </mxCell>
        <mxCell id="x_PVkYhebT0tfvJwBB1v-21" style="edgeStyle=orthogonalEdgeStyle;rounded=0;orthogonalLoop=1;jettySize=auto;html=1;entryX=0.569;entryY=0.549;entryDx=0;entryDy=0;entryPerimeter=0;" edge="1" parent="x_PVkYhebT0tfvJwBB1v-15" source="x_PVkYhebT0tfvJwBB1v-18" target="x_PVkYhebT0tfvJwBB1v-19">
          <mxGeometry relative="1" as="geometry" />
        </mxCell>
        <mxCell id="x_PVkYhebT0tfvJwBB1v-35" value="" style="sketch=0;points=[[0,0,0],[0.25,0,0],[0.5,0,0],[0.75,0,0],[1,0,0],[0,1,0],[0.25,1,0],[0.5,1,0],[0.75,1,0],[1,1,0],[0,0.25,0],[0,0.5,0],[0,0.75,0],[1,0.25,0],[1,0.5,0],[1,0.75,0]];outlineConnect=0;fontColor=#232F3E;fillColor=#DD344C;strokeColor=#ffffff;dashed=0;verticalLabelPosition=bottom;verticalAlign=top;align=center;html=1;fontSize=12;fontStyle=0;aspect=fixed;shape=mxgraph.aws4.resourceIcon;resIcon=mxgraph.aws4.cognito;" vertex="1" parent="x_PVkYhebT0tfvJwBB1v-15">
          <mxGeometry x="730" y="110" width="90" height="90" as="geometry" />
        </mxCell>
        <mxCell id="x_PVkYhebT0tfvJwBB1v-38" value="" style="sketch=0;pointerEvents=1;shadow=0;dashed=0;html=1;strokeColor=none;fillColor=#DF8C42;labelPosition=center;verticalLabelPosition=bottom;verticalAlign=top;align=center;outlineConnect=0;shape=mxgraph.veeam2.aws_s3;" vertex="1" parent="x_PVkYhebT0tfvJwBB1v-15">
          <mxGeometry x="1200" y="500" width="80" height="92" as="geometry" />
        </mxCell>
        <mxCell id="x_PVkYhebT0tfvJwBB1v-44" value="Cognito Authentication" style="text;html=1;align=center;verticalAlign=middle;resizable=0;points=[];autosize=1;strokeColor=none;fillColor=none;" vertex="1" parent="x_PVkYhebT0tfvJwBB1v-15">
          <mxGeometry x="587" y="160" width="140" height="30" as="geometry" />
        </mxCell>
        <mxCell id="x_PVkYhebT0tfvJwBB1v-45" value="&lt;div&gt;React App Deployed in Amplify&lt;/div&gt;" style="text;html=1;align=center;verticalAlign=middle;resizable=0;points=[];autosize=1;strokeColor=none;fillColor=none;" vertex="1" parent="x_PVkYhebT0tfvJwBB1v-15">
          <mxGeometry y="364" width="190" height="30" as="geometry" />
        </mxCell>
        <mxCell id="x_PVkYhebT0tfvJwBB1v-46" value="ALB" style="text;html=1;align=center;verticalAlign=middle;resizable=0;points=[];autosize=1;strokeColor=none;fillColor=none;" vertex="1" parent="x_PVkYhebT0tfvJwBB1v-15">
          <mxGeometry x="222.16000000000003" y="364" width="50" height="30" as="geometry" />
        </mxCell>
        <mxCell id="x_PVkYhebT0tfvJwBB1v-16" value="" style="shape=image;verticalLabelPosition=bottom;labelBackgroundColor=default;verticalAlign=top;aspect=fixed;imageAspect=0;editableCssRules=.*;image=data:image/svg+xml,PHN2ZyB4bWxucz0iaHR0cDovL3d3dy53My5vcmcvMjAwMC9zdmciIHdpZHRoPSIyNTUuNzQ0MDAzMjk1ODk4NDQiIHZpZXdCb3g9IjAuMTI3OTc5Mjc4NTY0NDUzMTIgMC4xMjc5NzU0NjM4NjcxODc1IDI1NS43NDQwMDMyOTU4OTg0NCAxNzkuMDA2MjQwODQ0NzI2NTYiIHByZXNlcnZlQXNwZWN0UmF0aW89InhNaWRZTWlkIiBoZWlnaHQ9IjE3OS4wMDYyNDA4NDQ3MjY1NiI+PHBhdGggdHJhbnNmb3JtPSJtYXRyaXgoMSAwIDAgLTEgMCAxNzkuMjYyMjI0KSIgZmlsbD0iIzAwYTFlMCIgZD0ibTEwNi41NTMyMDMgMTU5LjYxMDk3NmM4LjI0NzkyNiA4LjU5NDAxOCAxOS43MzA5MDQgMTMuOTIzODM5IDMyLjQzMDY3IDEzLjkyMzgzOSAxNi44ODIwMTkgMCAzMS42MTA5NzgtOS40MTM3MSAzOS40NTQ1MjMtMjMuMzg4NTUzIDYuODE2MTk3IDMuMDQ1NjEyIDE0LjM2MTAwOSA0LjczOTY0MyAyMi4yOTkyNzMgNC43Mzk2NDMgMzAuNDQ4ODM3IDAgNTUuMTM0MzI2LTI0LjkwMDQzIDU1LjEzNDMyNi01NS42MTUyMTE1IDAtMzAuNzE4NDI0MS0yNC42ODU0ODktNTUuNjE4ODU0NS01NS4xMzQzMjYtNTUuNjE4ODU0NS0zLjcxNTkzOCAwLTcuMzQ4MDg2LjM3MTU5MzktMTAuODYwMDEyIDEuMDgxOTkzOC02LjkwNzI3NC0xMi4zMjA4ODU5LTIwLjA2OTcxLTIwLjY0NTMxNjUtMzUuMTc3NTUtMjAuNjQ1MzE2NS02LjMyNDM4MSAwLTEyLjMwNjMxNCAxLjQ2MDg3MzgtMTcuNjMyNDkyIDQuMDU4Mzg3Ni03LjAwMTk5NC0xNi40NzAzNTA1LTIzLjMxNTY5Mi0yOC4wMTg5MDQxNy00Mi4zMjg5MTAxLTI4LjAxODkwNDE3LTE5LjgwMDEyMjcgMC0zNi42NzQ4NTQ4IDEyLjUyODU0MTM3LTQzLjE1MjI0NTQgMzAuMDk5MTAxMDctMi44MzA2NzA3LS42MDExMDc3LTUuNzYzMzQ3Ni0uOTE0NDEyMy04Ljc3MjUyOTEtLjkxNDQxMjMtMjMuNTc0MzUwNCAwLTQyLjY4NTkzMTYzIDE5LjMwODMwNzQtNDIuNjg1OTMxNjMgNDMuMTMwMzg3IDAgMTUuOTYzOTYyOCA4LjU4NjczMjE3IDI5LjkwMjM3NDUgMjEuMzQ0Nzg3MzMgMzcuMzU5NzUzNS0yLjYyNjY1ODQgNi4wNDM4NjQtNC4wODc1MzIyIDEyLjcxNDMzOC00LjA4NzUzMjIgMTkuNzI3MjYxIDAgMjcuMzk1OTM4IDIyLjI0MDk4NDIgNDkuNjA0MTM1IDQ5LjY3MzM1MyA0OS42MDQxMzUgMTYuMTA2MDQyOCAwIDMwLjQxOTY5MTgtNy42NTc3NDggMzkuNDk0NTk2MS0xOS41MjMyNDkiLz48ZyBmaWxsPSIjZmZmIj48cGF0aCB0cmFuc2Zvcm09Im1hdHJpeCgxIDAgMCAtMSAwIDE2OC4yODcwODgpIiBkPSJtMzcuMTcwMDc0NCA3NS4zMzA5NDEzYy0uMTYwMjk1NC0uNDE4OTUzOC4wNTgyODkyLS41MDYzODc3LjEwOTI5MjMtLjU3OTI0OTIuNDgwODg2MS0uMzQ5NzM1NC45NjkwNTg0LS42MDExMDc3IDEuNDYwODczOC0uODgxNjI0NiAyLjYwODQ0My0xLjM4NDM2OTIgNS4wNzExNjMtMS43ODg3NTA3IDcuNjQ2ODE4My0xLjc4ODc1MDcgNS4yNDYwMzA3IDAgOC41MDI5NDE0IDIuNzkwNTk2OCA4LjUwMjk0MTQgNy4yODI1MTA2di4wODc0MzM5YzAgNC4xNTMxMDc2LTMuNjc1ODY0NSA1LjY2MTM0MTQtNy4xMjU4NTgzIDYuNzUwNjIxNGwtLjQ0ODA5ODUuMTQ1NzIzMWMtMi42MDExNTY4Ljg0NTE5MzgtNC44NDUyOTIyIDEuNTczODA5Mi00Ljg0NTI5MjIgMy4yODYwNTUzdi4wOTEwNzY5YzAgMS40NjQ1MTY5IDEuMzExNTA3NyAyLjU0Mjg2NzcgMy4zNDQzNDQ2IDIuNTQyODY3NyAyLjI1ODcwNzYgMCA0Ljk0MDAxMjItLjc1MDQ3MzkgNi42NjY4MzA2LTEuNzA0OTYgMCAwIC41MDYzODc3LS4zMjc4NzY5LjY5MjE4NDYuMTYzOTM4NS4xMDIwMDYyLjI2MjMwMTUuOTc2MzQ0NiAyLjYxNTcyOTEgMS4wNjc0MjE2IDIuODcwNzQ0NS4wOTgzNjMuMjc2ODczOS0uMDc2NTA0Ny40ODA4ODYyLS4yNTUwMTU0LjU5MDE3ODUtMS45NzA5MDQ2IDEuMTk4NTcyMy00LjY5NTkyNjEgMi4wMTgyNjQ2LTcuNTE1NjY3NiAyLjAxODI2NDZsLS41MjQ2MDMxLS4wMDM2NDMxYy00LjgwMTU3NTMgMC04LjE1MzIwNi0yLjg5OTg4OTItOC4xNTMyMDYtNy4wNTY2Mzk5di0uMDg3NDMzOGMwLTQuMzgyNjIxNSAzLjY5NzcyMy01LjgwMzQyMTUgNy4xNjIyODkxLTYuNzk0MzM4NGwuNTU3MzkwOC0uMTcxMjI0NmMyLjUyNDY1MjMtLjc3NTk3NTQgNC42OTk1NjkxLTEuNDQyNjU4NCA0LjY5OTU2OTEtMy4yMjA0OHYtLjA4NzQzMzhjMC0xLjYyNDgxMjMtMS40MTM1MTM4LTIuODM0MzEzOC0zLjY5NDA3OTktMi44MzQzMTM4LS44ODUyNjc3IDAtMy43MDg2NTIyLjAxODIxNTQtNi43NTc5MDc2IDEuOTQ1NDAzLS4zNjc5NTA3LjIxNDk0MTYtLjU4Mjg5MjMuMzcxNTkzOS0uODY3MDUyMy41NDI4MTg1LS4xNDkzNjYxLjA5NDcyLS41MjQ2MDMuMjU4NjU4NS0uNjg4NTQxNS0uMjM2OHoiLz48cGF0aCB0cmFuc2Zvcm09Im1hdHJpeCgxIDAgMCAtMSAwIDE2OC4yODcwODgpIiBkPSJtMTEzLjk2OTc3OSA3NS4zMzA5NDEzYy0uMTYwMjk1LS40MTg5NTM4LjA1ODI4OS0uNTA2Mzg3Ny4xMDkyOTMtLjU3OTI0OTIuNDgwODg2LS4zNDk3MzU0Ljk2OTA1OC0uNjAxMTA3NyAxLjQ2MDg3My0uODgxNjI0NiAyLjYwODQ0My0xLjM4NDM2OTIgNS4wNzExNjMtMS43ODg3NTA3IDcuNjQ2ODE5LTEuNzg4NzUwNyA1LjI0NjAzIDAgOC41MDI5NDEgMi43OTA1OTY4IDguNTAyOTQxIDcuMjgyNTEwNnYuMDg3NDMzOWMwIDQuMTUzMTA3Ni0zLjY3NTg2NCA1LjY2MTM0MTQtNy4xMjU4NTggNi43NTA2MjE0bC0uNDQ4MDk5LjE0NTcyMzFjLTIuNjAxMTU3Ljg0NTE5MzgtNC44NDUyOTIgMS41NzM4MDkyLTQuODQ1MjkyIDMuMjg2MDU1M3YuMDkxMDc2OWMwIDEuNDY0NTE2OSAxLjMxMTUwOCAyLjU0Mjg2NzcgMy4zNDQzNDUgMi41NDI4Njc3IDIuMjU4NzA3IDAgNC45NDAwMTItLjc1MDQ3MzkgNi42NjY4My0xLjcwNDk2IDAgMCAuNTA2Mzg4LS4zMjc4NzY5LjY5MjE4NS4xNjM5Mzg1LjEwMjAwNi4yNjIzMDE1Ljk3NjM0NCAyLjYxNTcyOTEgMS4wNjc0MjEgMi44NzA3NDQ1LjA5ODM2My4yNzY4NzM5LS4wNzY1MDQuNDgwODg2Mi0uMjU1MDE1LjU5MDE3ODUtMS45NzA5MDUgMS4xOTg1NzIzLTQuNjk1OTI2IDIuMDE4MjY0Ni03LjUxNTY2OCAyLjAxODI2NDZsLS41MjQ2MDMtLjAwMzY0MzFjLTQuODAxNTc1IDAtOC4xNTMyMDYtMi44OTk4ODkyLTguMTUzMjA2LTcuMDU2NjM5OXYtLjA4NzQzMzhjMC00LjM4MjYyMTUgMy42OTc3MjMtNS44MDM0MjE1IDcuMTYyMjg5LTYuNzk0MzM4NGwuNTU3MzkxLS4xNzEyMjQ2YzIuNTI0NjUyLS43NzU5NzU0IDQuNzAzMjEyLTEuNDQyNjU4NCA0LjcwMzIxMi0zLjIyMDQ4di0uMDg3NDMzOGMwLTEuNjI0ODEyMy0xLjQxNzE1Ni0yLjgzNDMxMzgtMy42OTc3MjMtMi44MzQzMTM4LS44ODUyNjcgMC0zLjcwODY1Mi4wMTgyMTU0LTYuNzU3OTA3IDEuOTQ1NDAzLS4zNjc5NTEuMjE0OTQxNi0uNTg2NTM2LjM2NDMwNzctLjg2MzQwOS41NDI4MTg1LS4wOTQ3Mi4wNjE5MzIzLS41MzkxNzYuMjMzMTU2OS0uNjkyMTg1LS4yMzY4eiIvPjxwYXRoIHRyYW5zZm9ybT0ibWF0cml4KDEgMCAwIC0xIDAgMTY4LjI3MTA2NikiIGQ9Im0xNjYuMzk4NzY5IDg0LjExMzY3NDRjMC0yLjUzOTIyNDUtLjQ3MzYtNC41MzkyNzM3LTEuNDA2MjI4LTUuOTUyNzg3Ni0uOTIxNjk4LTEuMzk4OTQxNS0yLjMxNjk5Ny0yLjA4MDE5NjgtNC4yNjI0LTIuMDgwMTk2OC0xLjk0OTA0NiAwLTMuMzM3MDU4LjY3NzYxMjItNC4yNDQxODUgMi4wODAxOTY4LS45MTgwNTUgMS40MDk4NzA4LTEuMzg0MzY5IDMuNDEzNTYzMS0xLjM4NDM2OSA1Ljk1Mjc4NzYgMCAyLjUzNTU4MTUuNDY2MzE0IDQuNTMxOTg3NyAxLjM4NDM2OSA1LjkzMDkyOTIuOTA3MTI3IDEuMzg0MzY5MiAyLjI5NTEzOSAyLjA1ODMzODQgNC4yNDQxODUgMi4wNTgzMzg0IDEuOTQ1NDAzIDAgMy4zNDA3MDItLjY3Mzk2OTIgNC4yNjYwNDMtMi4wNTgzMzg0LjkyODk4NS0xLjM5ODk0MTUgMS40MDI1ODUtMy4zOTUzNDc3IDEuNDAyNTg1LTUuOTMwOTI5Mm00LjM3ODk3OCA0LjcwNjg1NTNjLS40Mjk4ODMgMS40NTM1ODc3LTEuMTAwMjA5IDIuNzM1OTUwOC0xLjk5Mjc2MyAzLjgwMzM3MjMtLjg5MjU1NCAxLjA3MTA2NDYtMi4wMjE5MDggMS45MzA4MzA3LTMuMzYyNTYgMi41NTc0NC0xLjMzNzAwOS42MjI5NjYxLTIuOTE4MTA1LjkzOTkxMzgtNC42OTIyODMuOTM5OTEzOC0xLjc3NzgyMSAwLTMuMzU4OTE3LS4zMTY5NDc3LTQuNjk1OTI2LS45Mzk5MTM4LTEuMzQwNjUyLS42MjY2MDkzLTIuNDcwMDA2LTEuNDg2Mzc1NC0zLjM2NjIwMy0yLjU1NzQ0LS44ODg5MTEtMS4wNzEwNjQ2LTEuNTU5MjM3LTIuMzUzNDI3Ny0xLjk5Mjc2My0zLjgwMzM3MjMtLjQyNjI0LTEuNDQ2MzAxNS0uNjQxMTgyLTMuMDI3Mzk2OC0uNjQxMTgyLTQuNzA2ODU1MyAwLTEuNjc5NDU4NC4yMTQ5NDItMy4yNjQxOTY4LjY0MTE4Mi00LjcwNjg1NTMuNDMzNTI2LTEuNDQ5OTQ0NiAxLjEwMDIwOS0yLjczMjMwNzYgMS45OTY0MDYtMy44MDMzNzIyLjg5MjU1NC0xLjA3MTA2NDYgMi4wMjU1NTEtMS45MjcxODc3IDMuMzYyNTYtMi41MzU1ODE1IDEuMzQwNjUyLS42MDgzOTM5IDIuOTE4MTA1LS45MTgwNTU0IDQuNjk1OTI2LS45MTgwNTU0IDEuNzc0MTc4IDAgMy4zNTE2MzEuMzA5NjYxNSA0LjY5MjI4My45MTgwNTU0IDEuMzM3MDA5LjYwODM5MzggMi40NzAwMDYgMS40NjQ1MTY5IDMuMzYyNTYgMi41MzU1ODE1Ljg5MjU1NCAxLjA2NzQyMTUgMS41NjI4OCAyLjM0OTc4NDYgMS45OTI3NjMgMy44MDMzNzIyLjQyOTg4MyAxLjQ0NjMwMTUuNjQ0ODI1IDMuMDMxMDQuNjQ0ODI1IDQuNzA2ODU1MyAwIDEuNjc1ODE1NC0uMjE0OTQyIDMuMjYwNTUzOC0uNjQ0ODI1IDQuNzA2ODU1MyIvPjxwYXRoIHRyYW5zZm9ybT0ibWF0cml4KDEgMCAwIC0xIDAgMTY4LjIzNzUzNCkiIGQ9Im0yMDYuNzM3NDgyIDc2LjcyNTE0MjdjLS4xNDU3MjMuNDI2MjQtLjU1NzM5MS4yNjU5NDQ2LS41NTczOTEuMjY1OTQ0Ni0uNjM3NTM4LS4yNDQwODYxLTEuMzE1MTUtLjQ2OTk1NjktMi4wMzY0NzktLjU4Mjg5MjMtLjczMjI1OS0uMTEyOTM1NC0xLjUzNzM3OS0uMTcxMjI0Ni0yLjQwMDc4OC0uMTcxMjI0Ni0yLjEyMDI3MSAwLTMuODAzMzcyLjYzMDI1MjMtNS4wMDkyMzEgMS44NzYxODQ2LTEuMjA5NTAxIDEuMjQ1OTMyMy0xLjg4NzExNCAzLjI2MDU1MzgtMS44Nzk4MjcgNS45ODU1NzUzLjAwNzI4NiAyLjQ4MDkzNTMuNjA0NzUgNC4zNDYxOTA3IDEuNjc5NDU4IDUuNzY2OTkwNiAxLjA2NzQyMSAxLjQxMzUxMzkgMi42OTIyMzQgMi4xMzg0ODYyIDQuODU5ODY0IDIuMTM4NDg2MiAxLjgwNjk2NyAwIDMuMTg0MDUtLjIwNzY1NTQgNC42MjY3MDgtLjY2MzA0IDAgMCAuMzQ2MDkyLS4xNDkzNjYyLjUxMDAzMS4zMDIzNzUzLjM4MjUyMyAxLjA2Mzc3ODUuNjY2NjgzIDEuODI1MTgxNiAxLjA3NDcwOCAyLjk5NDYwOTIuMTE2NTc4LjMzMTUyLS4xNjc1ODIuNDczNi0uMjY5NTg4LjUxMzY3MzktLjU2ODMyLjIyMjIyNzctMS45MDg5NzIuNTgyODkyMy0yLjkyMTc0OC43MzU5MDE1LS45NDcyLjE0NTcyMzEtMi4wNTQ2OTUuMjIyMjI3Ny0zLjI4NjA1NS4yMjIyMjc3LTEuODM5NzU0IDAtMy40NzkxMzktLjMxMzMwNDYtNC44ODE3MjMtLjkzOTkxMzgtMS4zOTg5NDItLjYyMjk2NjItMi41ODY1ODUtMS40ODI3MzIzLTMuNTI2NDk5LTIuNTUzNzk2OS0uOTM5OTEzLTEuMDcxMDY0Ni0xLjY1Mzk1Ni0yLjM1MzQyNzctMi4xMzExOTktMy44MDMzNzIzLS40NzM2LTEuNDQ2MzAxNS0uNzE0MDQ0LTMuMDM0NjgzLS43MTQwNDQtNC43MTQxNDE0IDAtMy42MzIxNDc3Ljk3OTk4OC02LjU2ODQ2NzYgMi45MTQ0NjItOC43MTc4ODMgMS45MzgxMTctMi4xNTY3MDE1IDQuODQ4OTM1LTMuMjUzMjY3NiA4LjY0NTAyMS0zLjI1MzI2NzYgMi4yNDQxMzYgMCA0LjU0NjU2LjQ1NTM4NDYgNi4yMDA1MTcgMS4xMDc0OTU0IDAgMCAuMzE2OTQ4LjE1MzAwOTIuMTc4NTExLjUyMDk1OTl6Ii8+PHBhdGggdHJhbnNmb3JtPSJtYXRyaXgoMSAwIDAgLTEgMCAxNjguMjc2OTMpIiBkPSJtMjE0LjM5OTIwNCA4Ni41NTIwMTk4Yy4yMDc2NTUgMS40MDk4NzA4LjU5NzQ2NCAyLjU4Mjk0MTUgMS4xOTg1NzIgMy40OTczNTM4LjkwNzEyNiAxLjM4ODAxMjMgMi4yOTE0OTUgMi4xNDk0MTU0IDQuMjM2ODk5IDIuMTQ5NDE1NCAxLjk0NTQwMyAwIDMuMjMxNDA5LS43NjUwNDYyIDQuMTUzMTA3LTIuMTQ5NDE1NC42MTIwMzctLjkxNDQxMjMuODc3OTgyLTIuMTM4NDg2MS45ODM2MzEtMy40OTczNTM4em0xNC43NDM1MzIgMy4xMDAyNTg1Yy0uMzcxNTk0IDEuNDAyNTg0Ni0xLjI5MzI5MiAyLjgxOTc0MTUtMS44OTgwNDMgMy40NjgyMDkxLS45NTQ0ODYgMS4wMjczNDc3LTEuODg3MTE0IDEuNzQ1MDMzOS0yLjgxMjQ1NSAyLjE0NTc3MjMtMS4yMDk1MDIuNTE3MzE2OS0yLjY1OTQ0Ny44NTk3NjYxLTQuMjQ3ODI4Ljg1OTc2NjEtMS44NTA2ODMgMC0zLjUzMDE0Mi0uMzA5NjYxNS00Ljg5MjY1Mi0uOTUwODQzLTEuMzY2MTU0LS42NDExODE1LTIuNTEzNzIzLTEuNTE1NTItMy40MTM1NjMtMi42MDQ4LS44OTk4NC0xLjA4NTYzNjktMS41Nzc0NTMtMi4zNzg5MjkyLTIuMDA3MzM2LTMuODQ3MDg5MS0uNDMzNTI2LTEuNDYwODczOS0uNjUyMTEtMy4wNTI4OTg1LS42NTIxMS00LjczMjM1NjkgMC0xLjcwODYwMy4yMjU4Ny0zLjMwMDYyNzYuNjczOTY5LTQuNzMyMzU2OC40NTE3NDEtMS40NDI2NTg1IDEuMTczMDcxLTIuNzE0MDkyMyAyLjE0OTQxNS0zLjc2Njk0MTUuOTcyNzAyLTEuMDYwMTM1NCAyLjIyNTkyLTEuODkwNzU2OSAzLjcyNjg2OC0yLjQ3MDAwNjEgMS40OTAwMTgtLjU3NTYwNjIgMy4zMDA2MjctLjg3NDMzODUgNS4zODA4MjQtLjg3MDY5NTQgNC4yODA2MTYuMDE0NTcyMyA2LjUzNTY4Ljk2OTA1ODUgNy40NjQ2NjUgMS40ODI3MzIzLjE2MzkzOC4wOTEwNzY5LjMyMDU5MS4yNTEzNzIzLjEyMzg2NC43MTA0bC0uOTY5MDU4IDIuNzE0MDkyMmMtLjE0NTcyMy40MDQzODE2LS41NTczOTEuMjU1MDE1NC0uNTU3MzkxLjI1NTAxNTQtMS4wNjAxMzUtLjM5MzQ1MjMtMi41NjgzNjktMS4xMDAyMDkyLTYuMDgzOTM4LTEuMDkyOTIzLTIuMjk4NzgyLjAwMzY0My00LjAwMzc0Mi42ODEyNTUzLTUuMDcxMTYzIDEuNzQxMzkwNy0xLjA5NjU2NiAxLjA4NTYzNjktMS42MzIwOTkgMi42ODEzMDQ2LTEuNzI2ODE5IDQuOTMyNzI2MWwxNC44MjM2OC0uMDE0NTcyM3MuMzg5ODA5LjAwNzI4NjEuNDI5ODgzLjM4NjE2NjFjLjAxNDU3My4xNjAyOTU0LjUxMDAzMSAzLjA0NTYxMjMtLjQ0MDgxMiA2LjM4NjMxMzh6Ii8+PHBhdGggdHJhbnNmb3JtPSJtYXRyaXgoMSAwIDAgLTEgMCAxNjguMjc2OTMpIiBkPSJtOTUuNjgyOTkwMSA4Ni41NTIwMTk4Yy4yMTEyOTg0IDEuNDA5ODcwOC41OTc0NjQ2IDIuNTgyOTQxNSAxLjE5ODU3MjMgMy40OTczNTM4LjkwNzEyNjEgMS4zODgwMTIzIDIuMjkxNDk1MyAyLjE0OTQxNTQgNC4yMzY4OTg2IDIuMTQ5NDE1NCAxLjk0NTQwMyAwIDMuMjMxNDA5LS43NjUwNDYyIDQuMTU2NzUtMi4xNDk0MTU0LjYwODM5NC0uOTE0NDEyMy44NzQzMzktMi4xMzg0ODYxLjk3OTk4OC0zLjQ5NzM1Mzh6bTE0LjczOTg4ODkgMy4xMDAyNTg1Yy0uMzcxNTk0IDEuNDAyNTg0Ni0xLjI4OTY0OSAyLjgxOTc0MTUtMS44OTQ0IDMuNDY4MjA5MS0uOTU0NDg2IDEuMDI3MzQ3Ny0xLjg4NzExNCAxLjc0NTAzMzktMi44MTI0NTUgMi4xNDU3NzIzLTEuMjA5NTAyLjUxNzMxNjktMi42NTk0NDYuODU5NzY2MS00LjI0NzgyOC44NTk3NjYxLTEuODQ3MDM5OCAwLTMuNTMwMTQxMy0uMzA5NjYxNS00Ljg5MjY1MjEtLjk1MDg0My0xLjM2NjE1MzgtLjY0MTE4MTUtMi41MTM3MjMtMS41MTU1Mi0zLjQxMzU2My0yLjYwNDgtLjg5OTg0LTEuMDg1NjM2OS0xLjU3NzQ1MjMtMi4zNzg5MjkyLTIuMDA3MzM1NC0zLjg0NzA4OTEtLjQyOTg4My0xLjQ2MDg3MzktLjY1MjExMDctMy4wNTI4OTg1LS42NTIxMTA3LTQuNzMyMzU2OSAwLTEuNzA4NjAzLjIyNTg3MDctMy4zMDA2Mjc2LjY3Mzk2OTItNC43MzIzNTY4LjQ1MTc0MTUtMS40NDI2NTg1IDEuMTczMDcwNy0yLjcxNDA5MjMgMi4xNDk0MTUzLTMuNzY2OTQxNS45NzI3MDE2LTEuMDYwMTM1NCAyLjIyNTkyLTEuODkwNzU2OSAzLjcyNjg2NzctMi40NzAwMDYxIDEuNDkwMDE4NC0uNTc1NjA2MiAzLjMwMDYyOC0uODc0MzM4NSA1LjM4MDgyNS0uODcwNjk1NCA0LjI4MDYxNS4wMTQ1NzIzIDYuNTM1Njc5Ljk2OTA1ODUgNy40NjQ2NjQgMS40ODI3MzIzLjE2MzkzOC4wOTEwNzY5LjMyMDU5MS4yNTEzNzIzLjEyMzg2NS43MTA0bC0uOTY1NDE2IDIuNzE0MDkyMmMtLjE0OTM2Ni40MDQzODE2LS41NjEwMzQuMjU1MDE1NC0uNTYxMDM0LjI1NTAxNTQtMS4wNjAxMzUtLjM5MzQ1MjMtMi41NjQ3MjYtMS4xMDAyMDkyLTYuMDg3NTgxLTEuMDkyOTIzLTIuMjk1MTM4LjAwMzY0My00LjAwMDA5ODQuNjgxMjU1My01LjA2NzUxOTkgMS43NDEzOTA3LTEuMDk2NTY2MiAxLjA4NTYzNjktMS42MzIwOTg1IDIuNjgxMzA0Ni0xLjcyNjgxODUgNC45MzI3MjYxbDE0LjgyMzY3OTQtLjAxNDU3MjNzLjM4OTgxLjAwNzI4NjEuNDI5ODgzLjM4NjE2NjFjLjAxNDU3My4xNjAyOTU0LjUxMDAzMSAzLjA0NTYxMjMtLjQ0NDQ1NSA2LjM4NjMxMzh6Ii8+PHBhdGggdHJhbnNmb3JtPSJtYXRyaXgoMSAwIDAgLTEgMCAxNjguMjQ5OTMpIiBkPSJtNjMuNjQxNzYzOCA3Ni44MTg3NzM5Yy0uNTc5MjQ5Mi40NjI2NzA4LS42NTkzOTY5LjU3OTI0OTItLjg1NjEyMy44Nzc5ODE1LS4yOTE0NDYyLjQ1NTM4NDYtLjQ0MDgxMjMgMS4xMDM4NTIzLS40NDA4MTIzIDEuOTI3MTg3NyAwIDEuMzA0MjIxNS40Mjk4ODMgMi4yNDA0OTIzIDEuMzIyNDM2OSAyLjg3MDc0NDYtLjAxMDkyOTMtLjAwMzY0MzEgMS4yNzUwNzY5IDEuMTExMTM4NCA0LjI5ODgzMDcgMS4wNzEwNjQ2IDIuMTIzOTEzOC0uMDI5MTQ0NyA0LjAyMTk1NjgtLjM0MjQ0OTMgNC4wMjE5NTY4LS4zNDI0NDkzdi02LjczOTY5MjJoLjAwMzY0MzFzLTEuODgzNDcwNy0uNDA0MzgxNS00LjAwMzc0MTUtLjUzMTg4OTJjLTMuMDE2NDY3Ni0uMTgyMTUzOC00LjM1NzExOTkuODcwNjk1NC00LjM0NjE5MDcuODY3MDUyM201Ljg5ODE0MTUgMTAuNDE1NTU2OGMtLjYwMTEwNzcuMDQzNzE2OS0xLjM4MDcyNjEuMDY5MjE4NC0yLjMxMzM1MzguMDY5MjE4NC0xLjI3MTQzMzkgMC0yLjQ5OTE1MDgtLjE2MDI5NTQtMy42NTAzNjMtLjQ2OTk1NjktMS4xNTg0OTg1LS4zMDk2NjE1LTIuMjAwNDE4NS0uNzk0MTkwOC0zLjA5NjYxNTQtMS40MzUzNzIzLS44OTk4NC0uNjQ0ODI0Ni0xLjYyNDgxMjMtMS40NjgxNi0yLjE0OTQxNTMtMi40NDQ1MDQ2LS41MjQ2MDMxLS45NzYzNDQ2LS43OTA1NDc3LTIuMTI3NTU2OS0uNzkwNTQ3Ny0zLjQxNzIwNjEgMC0xLjMxMTUwNzYuMjI1ODcwOC0yLjQ1MTc5MDcuNjc3NjEyMy0zLjM4NDQxODQuNDUxNzQxNS0uOTM2MjcwNyAxLjEwMzg1MjMtMS43MTU4ODkyIDEuOTM0NDczOC0yLjMxNjk5NjkuODIzMzM1NC0uNjAxMTA3NiAxLjgzOTc1MzgtMS4wNDE5MTk5IDMuMDIwMTEwNy0xLjMwNzg2NDUgMS4xNjIxNDE1LS4yNjU5NDQ3IDIuNDgwOTM1NC0uNDAwNzM4NSAzLjkyMzU5MzgtLjQwMDczODUgMS41MTkxNjMxIDAgMy4wMzQ2ODMuMTIzODY0NiA0LjUwMjg0My4zNzUyMzY5IDEuNDUzNTg3Ny4yNDc3MjkyIDMuMjM4Njk1My42MDgzOTM5IDMuNzM0MTUzOC43MjEzMjkyLjQ5MTgxNTQuMTE2NTc4NSAxLjAzODI3NjkuMjY1OTQ0NiAxLjAzODI3NjkuMjY1OTQ0Ni4zNjc5NTA4LjA5MTA3Ny4zMzg4MDYyLjQ4NDUyOTMuMzM4ODA2Mi40ODQ1MjkzbC0uMDA3Mjg2MiAxMy41NTU4ODljMCAyLjk3Mjc1MDctLjc5NDE5MDggNS4xNzY4MTIyLTIuMzU3MDcwNyA2LjU0Mjk2Ni0xLjU1NTU5MzkgMS4zNjI1MTA4LTMuODQ3MDg5MiAyLjA1MTA1MjMtNi44MDg5MTA3IDIuMDUxMDUyMy0xLjExMTEzODQgMC0yLjg5OTg4OTItLjE1MzAwOTItMy45NzA5NTM4LS4zNjc5NTA4IDAgMC0zLjIzODY5NTMtLjYyNjYwOTItNC41NzIwNjE0LTEuNjY4NTI5MiAwIDAtLjI5MTQ0NjItLjE4MjE1MzgtLjEzMTE1MDgtLjU5MDE3ODRsMS4wNDkyMDYxLTIuODE5NzQxNWMuMTMxMTUwOC0uMzY0MzA3Ny40ODQ1MjkzLS4yNDA0NDMxLjQ4NDUyOTMtLjI0MDQ0MzFzLjExMjkzNTMuMDQzNzE2OS4yNDQwODYxLjEyMDIyMTZjMi44NTI1MjkyIDEuNTUxOTUwNyA2LjQ1OTE3NTMgMS41MDQ1OTA3IDYuNDU5MTc1MyAxLjUwNDU5MDcgMS42MDI5NTM4IDAgMi44MzQzMTM4LS4zMjA1OTA4IDMuNjY0OTM1My0uOTU4MTI5Mi44MDg3NjMxLS42MTkzMjMxIDEuMjIwNDMwOC0xLjU1NTU5MzggMS4yMjA0MzA4LTMuNTMwMTQxNXYtLjYyNjYwOTJjLTEuMjc1MDc2OS4xODIxNTM4LTIuNDQ0NTA0Ni4yODc4MDMxLTIuNDQ0NTA0Ni4yODc4MDMxIi8+PHBhdGggdHJhbnNmb3JtPSJtYXRyaXgoMSAwIDAgLTEgMCAxNjguMDM2NDk2KSIgZD0ibTE4OS4wOTkxMzMgOTQuNjU4OTc0NWMuMTEyOTM2LjMzNTE2MzEtLjEyMzg2NC40OTU0NTg0LS4yMjIyMjcuNTMxODg5Mi0uMjUxMzczLjA5ODM2MzEtMS41MTE4NzcuMzY0MzA3Ny0yLjQ4NDU3OS40MjYyNC0xLjg2MTYxMi4xMTI5MzU0LTIuODk2MjQ2LS4yMDAzNjkyLTMuODIxNTg3LS42MTU2OC0uOTE4MDU2LS40MTUzMTA3LTEuOTM4MTE3LTEuMDg1NjM2OS0yLjUwNjQzNy0xLjg0NzA0djEuODAzMzIzMWMwIC4yNTEzNzIzLS4xNzg1MTEuNDUxNzQxNS0uNDI2MjQuNDUxNzQxNWgtMy43OTk3MjljLS4yNDc3MyAwLS40MjYyNC0uMjAwMzY5Mi0uNDI2MjQtLjQ1MTc0MTV2LTIyLjEwOTgzMzVjMC0uMjQ3NzI5Mi4yMDQwMTItLjQ1MTc0MTUuNDUxNzQxLS40NTE3NDE1aDMuODk0NDQ5Yy4yNDc3MyAwIC40NDgwOTkuMjA0MDEyMy40NDgwOTkuNDUxNzQxNXYxMS4wNDU4MDkxYzAgMS40ODI3MzIyLjE2MzkzOCAyLjk2MTgyMTQuNDkxODE1IDMuODkwODA2LjMyMDU5MS45MTgwNTU0Ljc1Nzc2IDEuNjUzOTU2OSAxLjI5NjkzNiAyLjE4MjIwMzEuNTQyODE4LjUyNDYwMzEgMS4xNTg0OTguODkyNTUzOCAxLjgzMjQ2NyAxLjEwMDIwOTIuNjg4NTQyLjIxMTI5ODUgMS40NDk5NDUuMjgwNTE2OSAxLjk4OTEyLjI4MDUxNjkuNzc1OTc2IDAgMS42Mjg0NTYtLjIwMDM2OTIgMS42Mjg0NTYtLjIwMDM2OTIuMjg0MTYtLjAzMjc4NzcuNDQ0NDU1LjE0MjA4LjUzOTE3NS40MDA3Mzg0LjI1NTAxNS42Nzc2MTIzLjk3NjM0NSAyLjcwNjgwNjIgMS4xMTQ3ODEgMy4xMTExODc3Ii8+PHBhdGggdHJhbnNmb3JtPSJtYXRyaXgoMSAwIDAgLTEgMCAxNjguODkxODYyKSIgZD0ibTE1Mi41NDM3NjcgMTA1Ljc2MTU3NGMtLjQ3MzYuMTQ1NzIzLS45MDM0ODMuMjQ0MDg2LTEuNDY0NTE3LjM0OTczNS0uNTY4MzIuMTAyMDA3LTEuMjQ1OTMyLjE1MzAxLTIuMDE0NjIxLjE1MzAxLTIuNjgxMzA1IDAtNC43OTQyOS0uNzU3NzYtNi4yNzcwMjItMi4yNTE0MjItMS40NzU0NDYtMS40ODYzNzUtMi40NzcyOTItMy43NDg3MjYtMi45ODAwMzctNi43MjUxMTk3bC0uMTgyMTU0LTEuMDAxODQ2MWgtMy4zNjYyMDNzLS40MDgwMjQuMDE0NTcyMy0uNDk1NDU4LS40Mjk4ODMxbC0uNTUwMTA1LTMuMDg1Njg2MWMtLjA0MDA3My0uMjkxNDQ2MS4wODc0MzQtLjQ3NzI0MzEuNDgwODg3LS40NzcyNDMxaDMuMjc1MTI2bC0zLjMyMjQ4Ni0xOC41NTA1NDc0Yy0uMjU4NjU5LTEuNDkzNjYxNS0uNTU3MzkxLTIuNzIxMzc4NC0uODg4OTExLTMuNjU0MDA2LS4zMjQyMzQtLjkxODA1NTQtLjY0MTE4Mi0xLjYwNjU5NjktMS4wMzQ2MzQtMi4xMDkzNDE2LS4zNzg4OC0uNDgwODg2MS0uNzM1OTAyLS44Mzc5MDc2LTEuMzU1MjI1LTEuMDQ1NTYzLS41MTAwMy0uMTcxMjI0Ni0xLjEwMDIwOS0uMjUxMzcyMy0xLjc0NTAzMy0uMjUxMzcyMy0uMzU3MDIyIDAtLjgzNDI2NS4wNTgyODkyLTEuMTg3NjQ0LjEzMTE1MDctLjM0OTczNS4wNjkyMTg1LS41MzU1MzIuMTQ1NzIzMS0uODAxNDc2LjI1ODY1ODUgMCAwLS4zODI1MjMuMTQ1NzIzMS0uNTM1NTMzLS4yMzY4LS4xMjAyMjEtLjMxNjk0NzctLjk5NDU2LTIuNzE3NzM1My0xLjEwMDIwOS0zLjAxMjgyNDYtLjEwMjAwNi0uMjk1MDg5Mi4wNDM3MTctLjUyNDYwMy4yMjk1MTQtLjU5MzgyMTUuNDM3MTY5LS4xNTMwMDkyLjc2MTQwMy0uMjU1MDE1NCAxLjM1NTIyNS0uMzk3MDk1NC44MjMzMzUtLjE5MzA4MyAxLjUxOTE2My0uMjA0MDEyMyAyLjE3MTI3My0uMjA0MDEyMyAxLjM2MjUxMSAwIDIuNjA4NDQzLjE5MzA4MzEgMy42Mzk0MzQuNTY0Njc2OSAxLjAzNDYzNC4zNzUyMzcgMS45MzgxMTcgMS4wMjczNDc3IDIuNzM5NTk0IDEuOTA4OTcyMy44NjM0MDkuOTU0NDg2MiAxLjQwNjIyOCAxLjk1MjY4OTIgMS45MjM1NDQgMy4zMTg4NDMuNTEzNjc0IDEuMzQ3OTM4NS45NTQ0ODcgMy4wMjM3NTM4IDEuMzA0MjIyIDQuOTc2NDQzbDMuMzQwNzAxIDE4Ljg5NjYzOTdoNC44ODE3MjNzLjQxMTY2OC0uMDE0NTcyMy40OTU0NTkuNDMzNTI2MmwuNTUzNzQ4IDMuMDgyMDQzYy4wMzY0My4yOTUwODkyLS4wODc0MzQuNDc3MjQzMS0uNDg0NTMuNDc3MjQzMWgtNC43Mzk2NDNjLjAyNTUwMi4xMDU2NDkyLjI0MDQ0MyAxLjc3NDE3ODQuNzgzMjYyIDMuMzQ0MzQ0NS4yMzMxNTcuNjY2NjgzMy42NzAzMjYgMS4yMDk1MDEzIDEuMDM4Mjc3IDEuNTgxMDk1My4zNjQzMDguMzY0MzA4Ljc4MzI2MS42MjI5NjYgMS4yNDIyODkuNzcyMzMyLjQ2OTk1Ny4xNTMwMSAxLjAwNTQ4OS4yMjU4NzEgMS41OTIwMjUuMjI1ODcxLjQ0NDQ1NSAwIC44ODUyNjctLjA1MTAwMyAxLjIxNjc4Ny0uMTIwMjIxLjQ1OTAyOC0uMDk4MzYzLjYzNzUzOS0uMTQ5MzY3Ljc1Nzc2LS4xODU3OTcuNDg0NTMtLjE0NTcyMy41NTAxMDUtLjAwMzY0My42NDQ4MjUuMjI5NTE0bDEuMTMyOTk3IDMuMTExMTg3Yy4xMTY1NzguMzM1MTYzLS4xNzEyMjUuNDc3MjQzLS4yNzMyMzEuNTE3MzE3Ii8+PHBhdGggdHJhbnNmb3JtPSJtYXRyaXgoMSAwIDAgLTEgMCAxNTguNzQyOTU0KSIgZD0ibTg2LjMyMTc0MDggNjMuNTUzMjM3YzAtLjI0NzcyOTItLjE3ODUxMDgtLjQ0ODA5ODUtLjQyNjI0LS40NDgwOTg1aC0zLjkzMDg3OTljLS4yNDc3MjkzIDAtLjQyMjU5NjkuMjAwMzY5My0uNDIyNTk2OS40NDgwOTg1djMxLjYzNjQ3OTVjMCAuMjQ3NzI5Mi4xNzQ4Njc2LjQ0ODA5ODQuNDIyNTk2OS40NDgwOTg0aDMuOTMwODc5OWMuMjQ3NzI5MiAwIC40MjYyNC0uMjAwMzY5Mi40MjYyNC0uNDQ4MDk4NHoiLz48L2c+PC9zdmc+;" vertex="1" parent="1">
          <mxGeometry x="320" y="40" width="143.02" height="100" as="geometry" />
        </mxCell>
        <mxCell id="x_PVkYhebT0tfvJwBB1v-20" style="edgeStyle=orthogonalEdgeStyle;rounded=0;orthogonalLoop=1;jettySize=auto;html=1;" edge="1" parent="1" source="x_PVkYhebT0tfvJwBB1v-19" target="UEzPUAAOIrF-is8g5C7q-15">
          <mxGeometry relative="1" as="geometry" />
        </mxCell>
        <mxCell id="x_PVkYhebT0tfvJwBB1v-22" style="edgeStyle=orthogonalEdgeStyle;rounded=0;orthogonalLoop=1;jettySize=auto;html=1;" edge="1" parent="1" source="UEzPUAAOIrF-is8g5C7q-15" target="x_PVkYhebT0tfvJwBB1v-17">
          <mxGeometry relative="1" as="geometry">
            <Array as="points">
              <mxPoint x="883" y="571" />
              <mxPoint x="960" y="571" />
              <mxPoint x="960" y="610" />
              <mxPoint x="1359" y="610" />
            </Array>
          </mxGeometry>
        </mxCell>
        <mxCell id="x_PVkYhebT0tfvJwBB1v-23" style="edgeStyle=orthogonalEdgeStyle;rounded=0;orthogonalLoop=1;jettySize=auto;html=1;" edge="1" parent="1" source="x_PVkYhebT0tfvJwBB1v-17" target="x_PVkYhebT0tfvJwBB1v-16">
          <mxGeometry relative="1" as="geometry">
            <Array as="points">
              <mxPoint x="1299" y="170" />
              <mxPoint x="392" y="170" />
            </Array>
          </mxGeometry>
        </mxCell>
        <mxCell id="x_PVkYhebT0tfvJwBB1v-24" value="" style="shape=image;verticalLabelPosition=bottom;labelBackgroundColor=default;verticalAlign=top;aspect=fixed;imageAspect=0;editableCssRules=.*;image=data:image/svg+xml,PHN2ZyB4bWw6c3BhY2U9InByZXNlcnZlIiBzdHlsZT0iZW5hYmxlLWJhY2tncm91bmQ6bmV3IDAgMCA4NDEuODkgNTk1LjI4OyIgdmlld0JveD0iNTEuMjMyMzQ5Mzk1NzUxOTUgMTk4LjY3OTk5MjY3NTc4MTI1IDczOS41ODc1ODU0NDkyMTg4IDIwMi45OTAwMjA3NTE5NTMxMiIgeT0iMHB4IiB4PSIwcHgiIHhtbG5zOnhsaW5rPSJodHRwOi8vd3d3LnczLm9yZy8xOTk5L3hsaW5rIiB4bWxucz0iaHR0cDovL3d3dy53My5vcmcvMjAwMC9zdmciIGlkPSJrYXRtYW5fMSIgdmVyc2lvbj0iMS4wIiB3aWR0aD0iNzM5LjU4NzU4NTQ0OTIxODgiIGhlaWdodD0iMjAyLjk5MDAyMDc1MTk1MzEyIj4mI3hhOzxzdHlsZSB0eXBlPSJ0ZXh0L2NzcyI+JiN4YTsJLnN0MHtmaWxsOiNGNDk4MTk7fSYjeGE7PC9zdHlsZT4mI3hhOzxnPiYjeGE7CTxwYXRoIGQ9Ik0zMDYuNDgsMjk4LjUyYzIuOTYsMS44NSw3LjM5LDMuMzMsMTIuOTQsNC40NGM1LjU1LDEuNDgsMTEuNDYsMS44NSwxNy4zOCwxLjg1YzUuOTIsMCwxMS4wOS0wLjc0LDE1LjktMi4yMiYjeEE7JiM5OyYjOTtjNC44MS0xLjQ4LDguODctMy43LDEyLjU3LTYuMjlzNi4yOS02LjI5LDguMTMtOS45OGMxLjg1LTMuNywyLjk2LTguMTMsMi45Ni0xMi45NGMwLTUuOTItMS44NS0xMS4wOS01LjE4LTE1LjkmI3hBOyYjOTsmIzk7Yy0zLjMzLTQuNDQtOS4yNC04LjEzLTE3LjM4LTEwLjcybC0xNS45LTUuMThjLTUuOTItMS44NS0xMC4zNS00LjA3LTEyLjU3LTYuMjljLTIuMjItMi4yMi0zLjMzLTQuNDQtMy4zMy04LjEzJiN4QTsmIzk7JiM5O2MwLTQuNDQsMS44NS04LjEzLDUuMTgtOS45OHM4LjUtMy4zMywxNS4xNi0zLjMzYzguMTMsMCwxNS4xNiwxLjQ4LDIxLjgxLDQuNDRjMS44NSwwLjc0LDMuMzMsMS40OCw0LjQ0LDEuNDgmI3hBOyYjOTsmIzk7YzEuODUsMCwyLjU5LTEuMTEsMi41OS0zLjd2LTUuMThjMC0xLjQ4LTAuMzctMi45Ni0xLjExLTMuN3MtMS44NS0xLjg1LTMuMzMtMi45NmMtMS4xMS0wLjc0LTIuOTYtMS40OC00LjgxLTEuODUmI3hBOyYjOTsmIzk7Yy0xLjg1LTAuNzQtNC4wNy0xLjExLTYuMjktMS44NWMtMi4yMi0wLjM3LTQuODEtMS4xMS03LjM5LTEuNDhjLTIuNTktMC4zNy01LjE4LTAuMzctNy43Ni0wLjM3Yy00LjgxLDAtOS42MSwwLjc0LTE0LjA1LDEuODUmI3hBOyYjOTsmIzk7Yy00LjQ0LDEuNDgtOC41LDMuMzMtMTEuODMsNS45MmMtMy4zMywyLjk2LTYuMjksNS45Mi04LjEzLDkuNjFjLTEuODUsMy43LTIuOTYsNy43Ni0yLjk2LDEyLjU3YzAsNS45MiwxLjg1LDExLjQ2LDUuNTUsMTYuMjcmI3hBOyYjOTsmIzk7YzMuNyw1LjE4LDkuNjEsOC44NywxOC4xMiwxMS40NmwxNi4yNyw1LjE4YzUuNTUsMS44NSw5LjI0LDMuNywxMS40Niw1LjkyYzIuMjIsMi4yMiwyLjk2LDQuODEsMi45Niw3Ljc2JiN4QTsmIzk7JiM5O2MwLDQuNDQtMS44NSw4LjEzLTUuOTIsMTAuNzJzLTkuMjQsMy43LTE2LjY0LDMuN2MtNC40NCwwLTguODctMC4zNy0xMy4zMS0xLjQ4Yy00LjQ0LTEuMTEtOC41LTIuMjItMTIuNTctNC4wNyYjeEE7JiM5OyYjOTtjLTEuMTEtMC4zNy0yLjIyLTAuNzQtMi45Ni0xLjExYy0wLjc0LTAuMzctMS40OC0wLjM3LTIuMjItMC4zN2MtMS44NSwwLTIuNTksMS4xMS0yLjU5LDMuN3Y1LjU1YzAsMS4xMSwwLjM3LDIuMjIsMC43NCwzLjMzJiN4QTsmIzk7JiM5O0MzMDMuMTUsMjk2LjY3LDMwNC42MywyOTcuNDEsMzA2LjQ4LDI5OC41MnogTTExNS42OSwyNDMuOGMtNC4wNy0wLjc0LTguMTMtMC43NC0xMS44My0wLjc0Yy0xMS40NiwwLTIwLjcsMi45Ni0yNy43Myw4Ljg3JiN4QTsmIzk7JiM5O2MtNi42Niw1LjkyLTEwLjM1LDEzLjY4LTEwLjM1LDIzLjI5YzAsOS4yNCwyLjU5LDE2LjI3LDguMTMsMjEuODFjNS41NSw1LjU1LDEyLjk0LDguMTMsMjIuNTUsOC4xM2MxMy4zMSwwLDI0LjQtNS4xOCwzMy4yOC0xNS41MyYjeEE7JiM5OyYjOTtjMS4xMSwyLjU5LDIuMjIsNC44MSwzLjMzLDYuNjZjMS4xMSwxLjg1LDIuNTksMy43LDQuMDcsNS4xOGMxLjExLDEuMTEsMi4yMiwxLjQ4LDMuMzMsMS40OGMwLjc0LDAsMS44NS0wLjM3LDIuOTYtMS4xMWw3LjAyLTQuODEmI3hBOyYjOTsmIzk7YzEuNDgtMS4xMSwyLjIyLTIuMjIsMi4yMi0zLjMzYzAtMC43NC0wLjM3LTEuNDgtMC43NC0yLjU5Yy0xLjQ4LTIuOTYtMi45Ni01LjU1LTMuNy04LjEzYy0wLjc0LTIuNTktMS40OC01LjkyLTEuNDgtOS45OHYtMzYuOTcmI3hBOyYjOTsmIzk7YzAtMTIuMi0zLjMzLTIxLjQ0LTkuMjQtMjcuNzNjLTUuOTItNi4yOS0xNi4yNy05LjI0LTI5LjU4LTkuMjRjLTYuMjksMC0xMi4yLDAuNzQtMTcuNzUsMi4yMmMtNS41NSwxLjQ4LTEwLjM1LDMuMzMtMTQuMDUsNS4xOCYjeEE7JiM5OyYjOTtjLTEuNDgsMC43NC0yLjU5LDEuNDgtMi45NiwyLjIyYy0wLjM3LDAuNzQtMC43NCwyLjIyLTAuNzQsNC4wN3Y1LjU1YzAsMi4yMiwwLjc0LDMuNywyLjIyLDMuN2MwLjM3LDAsMS4xMSwwLDEuODUtMC4zNyYjeEE7JiM5OyYjOTtjMC43NC0wLjM3LDIuMjItMC43NCw0LjA3LTEuNDhjNC4wNy0xLjQ4LDguMTMtMi45NiwxMi4yLTMuN2M0LjA3LTEuMTEsOC4xMy0xLjQ4LDEyLjItMS40OGM4LjUsMCwxNC43OSwxLjg1LDE4LjQ5LDUuMTgmI3hBOyYjOTsmIzk7YzMuNywzLjMzLDUuMTgsOS42MSw1LjE4LDE4LjEydjguMTNDMTIzLjgyLDI0NS4yOCwxMTkuNzYsMjQ0LjU0LDExNS42OSwyNDMuOHogTTEyOC42MywyNjMuNzdjMCwzLjctMC4zNyw3LjAyLTEuMTEsOS42MSYjeEE7JiM5OyYjOTtjLTAuNzQsMi41OS0xLjg1LDUuMTgtMy43LDcuMzljLTIuOTYsMy4zMy02LjY2LDUuOTItMTAuNzIsNy4wMmMtNC4wNywxLjExLTguMTMsMi4yMi0xMS44MywyLjIyYy01LjE4LDAtOS4yNC0xLjQ4LTExLjgzLTQuMDcmI3hBOyYjOTsmIzk7Yy0yLjk2LTIuNTktNC4wNy02LjY2LTQuMDctMTEuODNjMC01LjU1LDEuODUtOS45OCw1LjU1LTEyLjk0YzMuNy0yLjk2LDkuMjQtNC40NCwxNi42NC00LjQ0YzMuMzMsMCw3LjAyLDAuMzcsMTAuNzIsMC43NCYjeEE7JiM5OyYjOTtzNy4wMiwxLjExLDEwLjM1LDEuODVWMjYzLjc3eiBNMTg1LjIsMjk2LjY3YzAuNzQsMi4yMiwxLjQ4LDMuNywyLjIyLDQuNDRjMC43NCwwLjc0LDIuMjIsMS4xMSw0LjQ0LDEuMTFoOS42MSYjeEE7JiM5OyYjOTtjMi4yMiwwLDMuNy0wLjM3LDQuNDQtMS4xMWMwLjc0LTAuNzQsMS40OC0yLjIyLDIuMjItNC40NGwxNy4zOC03Mi44NGwxNy43NSw3Mi44NGMwLjM3LDIuMjIsMS4xMSwzLjcsMi4yMiw0LjQ0JiN4QTsmIzk7JiM5O2MxLjExLDAuNzQsMi41OSwxLjExLDQuNDQsMS4xMWg5LjYxYzEuODUsMCwzLjMzLTAuMzcsNC40NC0xLjExYzAuNzQtMC43NCwxLjg1LTIuMjIsMi4yMi00LjQ0bDI3LjM2LTg3LjI2JiN4QTsmIzk7JiM5O2MwLjM3LTEuMTEsMC43NC0yLjIyLDAuNzQtMi45NmMwLTAuNzQsMC4zNy0xLjExLDAuMzctMS44NWMwLTEuODUtMC43NC0yLjk2LTIuOTYtMi45NmgtMTAuMzVjLTIuMjIsMC0zLjcsMC4zNy00LjQ0LDEuMTEmI3hBOyYjOTsmIzk7Yy0wLjc0LDAuNzQtMS40OCwyLjIyLTIuMjIsNC40NGwtMTkuNiw3NS43OWwtMTcuNzUtNzUuNDJjLTAuMzctMi4yMi0xLjExLTMuNy0yLjIyLTQuNDRjLTAuNzQtMC43NC0yLjU5LTEuMTEtNC40NC0xLjExaC05LjI0JiN4QTsmIzk7JiM5O2MtMi4yMiwwLTMuNywwLjM3LTQuNDQsMS4xMXMtMS44NSwxLjg1LTIuMjIsNC40NGwtMTcuNzUsNzQuNjlsLTE4Ljg2LTc1LjA2Yy0wLjc0LTIuMjItMS40OC0zLjctMi4yMi00LjQ0cy0yLjIyLTEuMTEtNC40NC0xLjExJiN4QTsmIzk7JiM5O2gtMTEuMDljLTEuODUsMC0yLjk2LDAuNzQtMi45NiwyLjk2YzAsMC43NCwwLjM3LDIuMjIsMS4xMSw0LjQ0QzE1OC41OCwyMDkuMDUsMTg1LjIsMjk2LjY3LDE4NS4yLDI5Ni42N3oiLz4mI3hhOwk8cGF0aCBkPSJNMzUyLjY5LDM1MS4zOWMtNDEuNzgsMTcuNzUtODYuODksMjYuMjUtMTI4LjMsMjYuMjVjLTYxLjAxLDAtMTIwLjE2LTE2LjY0LTE2Ny44Ni00NC43NCYjeEE7JiM5OyYjOTtjLTQuMDctMi41OS03LjM5LDEuODUtMy43LDQuODFjNDQuMzcsMzkuOTMsMTAyLjc4LDYzLjk2LDE2Ny44Niw2My45NmM0Ni4yMiwwLDEwMC4yLTE0LjQyLDEzNy41NC00Mi4xNSYjeEE7JiM5OyYjOTtDMzY0LjE2LDM1NS40NiwzNTguOTgsMzQ4LjgsMzUyLjY5LDM1MS4zOXoiIGNsYXNzPSJzdDAiLz4mI3hhOwk8cGF0aCBkPSJNMzI5LjQsMzM1Ljg2Yy0zLjMzLDIuMjItMi41OSw1LjU1LDAuNzQsNS4xOGMxMS44My0xLjQ4LDM4LjQ1LTQuNDQsNDMuMjYsMS40OCYjeEE7JiM5OyYjOTtjNC44MSw2LjI5LTUuMTgsMzEuMDYtOS42MSw0Mi41MmMtMS40OCwzLjMzLDEuNDgsNC44MSw0LjQ0LDIuMjJjMTkuOTctMTYuNjQsMjUuMTQtNTEuNzYsMjEuMDctNTYuNTcmI3hBOyYjOTsmIzk7QzM4NS42LDMyNS4xNCwzNTAuNDgsMzIwLjcsMzI5LjQsMzM1Ljg2eiIgY2xhc3M9InN0MCIvPiYjeGE7CTxwYXRoIGQ9Ik00NzguNzcsMjc4LjkyYy0wLjc0LDAtMS40OC0wLjM3LTEuNDgtMS40OHYtNjEuMDFjMC0wLjc0LDAuMzctMS40OCwxLjQ4LTEuNDhoMS44NWMxLjExLDAsMS40OCwwLjM3LDEuNDgsMS40OGwwLjM3LDMuNyYjeEE7JiM5OyYjOTtjMi41OS0yLjIyLDUuNTUtMy43LDguMTMtNC44MXM1LjE4LTEuNDgsOC4xMy0xLjQ4YzUuOTIsMCwxMC4zNSwyLjIyLDEzLjY4LDYuMjljMy4zMyw0LjA3LDUuMTgsOS45OCw1LjE4LDE3LjAxJiN4QTsmIzk7JiM5O2MwLDcuMzktMS44NSwxMy4zMS01LjE4LDE3Ljc1Yy0zLjMzLDQuNDQtOC4xMyw2LjY2LTE0LjQyLDYuNjZjLTUuNTUsMC0xMC4zNS0yLjIyLTE1LjE2LTYuMjl2MjIuMThjMCwwLjc0LTAuMzcsMS40OC0xLjQ4LDEuNDgmI3hBOyYjOTsmIzk7QzQ4MS4zNSwyNzguOTIsNDc4Ljc3LDI3OC45Miw0NzguNzcsMjc4LjkyeiBNNDk3LjI1LDI1Ni43NGM0LjgxLDAsOC41LTEuNDgsMTEuMDktNC44MWMyLjU5LTMuMzMsMy43LTguMTMsMy43LTE0LjQyJiN4QTsmIzk7JiM5O2MwLTEyLjU3LTQuODEtMTguODYtMTQuNDItMTguODZjLTQuODEsMC05Ljk4LDEuODUtMTQuNzksNS41NXYyNi4yNWMyLjU5LDIuMjIsNC44MSwzLjcsNy4wMiw0LjQ0JiN4QTsmIzk7JiM5O0M0OTIuMDgsMjU2LDQ5NC42NiwyNTYuMzcsNDk3LjI1LDI1Ni43NHogTTUzOS40LDI2MS4xOGMtNC4wNywwLTcuMzktMS4xMS05Ljk4LTMuN2MtMi4yMi0yLjIyLTMuNy01LjU1LTMuNy05LjYxJiN4QTsmIzk7JiM5O2MwLTQuNDQsMS40OC03Ljc2LDQuNDQtMTAuMzVjMi45Ni0yLjU5LDcuMDItMy43LDEyLjItMy43YzQuMDcsMCw4LjEzLDAuNzQsMTIuOTQsMi4yMnYtNy4zOWMwLTMuNy0wLjc0LTYuMjktMi41OS03Ljc2JiN4QTsmIzk7JiM5O2MtMS44NS0xLjQ4LTQuNDQtMi4yMi04LjUtMi4yMmMtNC4wNywwLTguNSwwLjc0LTEyLjk0LDIuMjJjLTAuMzcsMC0xLjExLDAuMzctMS40OCwwLjM3Yy0wLjc0LDAtMC43NC0wLjM3LTAuNzQtMS4xMXYtMS40OCYjeEE7JiM5OyYjOTtjMC0wLjM3LDAtMC43NCwwLjM3LTEuMTFsMC43NC0wLjc0YzQuODEtMS44NSw5LjYxLTIuOTYsMTUuMTYtMi45NmM1LjU1LDAsOS4yNCwxLjExLDExLjgzLDMuMzNjMi41OSwyLjIyLDMuNyw1LjU1LDMuNyw5Ljk4djMxLjgmI3hBOyYjOTsmIzk7YzAsMC43NC0wLjM3LDEuNDgtMS40OCwxLjQ4aC0xLjg1Yy0wLjc0LDAtMS40OC0wLjM3LTEuNDgtMS40OGwtMC4zNy0zLjdDNTUwLjQ5LDI1OS4zMyw1NDQuOTUsMjYxLjU1LDUzOS40LDI2MS4xOEw1MzkuNCwyNjEuMTh6JiN4QTsmIzk7JiM5OyBNNTQwLjE0LDI1Ni43NGMyLjIyLDAsNC44MS0wLjM3LDcuMzktMS40OGMyLjU5LTEuMTEsNS4xOC0yLjIyLDguMTMtNC4wN1YyNDAuMWMtMy44Ni0xLjA0LTcuODQtMS41My0xMS44My0xLjQ4JiN4QTsmIzk7JiM5O2MtOC41LDAtMTIuNTcsMy4zMy0xMi41Nyw5LjYxYzAsMi45NiwwLjc0LDQuODEsMi4yMiw2LjI5QzUzNC45NiwyNTYsNTM3LjE4LDI1Ni4zNyw1NDAuMTQsMjU2Ljc0eiBNNTc2LDI2MC40NCYjeEE7JiM5OyYjOTtjLTAuNzQsMC0xLjQ4LTAuMzctMS40OC0xLjQ4di00Mi41MmMwLTAuNzQsMC4zNy0xLjQ4LDEuNDgtMS40OGgxLjg1YzEuMTEsMCwxLjQ4LDAuMzcsMS40OCwxLjQ4bDAuMzcsNS4xOCYjeEE7JiM5OyYjOTtjMi4yMi0yLjU5LDQuNDQtNC40NCw2LjY2LTUuMThjMi4yMi0xLjExLDQuODEtMS40OCw3LjM5LTEuNDhoMi4yMmMwLjc0LDAsMS40OCwwLjM3LDEuNDgsMS40OHYyLjIyYzAsMC4zNywwLDAuMzctMC4zNywwLjc0JiN4QTsmIzk7JiM5O2MwLDAuMzctMC4zNywwLjM3LTAuNzQsMC4zN2gtMy4zM2MtMi41OSwwLTUuMTgsMC4zNy03LjM5LDEuNDhjLTIuMjIsMS4xMS00LjA3LDIuNTktNi4yOSw0LjgxdjMyLjkxYzAsMC43NC0wLjM3LDEuNDgtMS40OCwxLjQ4JiN4QTsmIzk7JiM5O0M1NzcuODUsMjYwLjQ0LDU3NiwyNjAuNDQsNTc2LDI2MC40NHogTTYyMS4xMSwyNjAuODFjLTMuNywwLTYuMjktMC43NC04LjEzLTIuOTZjLTEuODUtMS44NS0yLjk2LTQuNDQtMi45Ni04LjEzdi0yOS45NWgtNy4wMiYjeEE7JiM5OyYjOTtjLTAuNzQsMC0xLjQ4LTAuMzctMS40OC0xLjQ4di0wLjc0YzAtMC4zNywwLTAuNzQsMC4zNy0xLjExYzAuMzctMC4zNywwLjM3LTAuMzcsMS4xMS0wLjM3bDcuMzktMC43NGwwLjc0LTExLjgzJiN4QTsmIzk7JiM5O2MwLTAuMzcsMC4zNy0wLjc0LDAuMzctMS4xMWMwLTAuMzcsMC4zNy0wLjM3LDEuMTEtMC4zN2gxLjQ4YzAuNzQsMCwxLjQ4LDAuMzcsMS40OCwxLjQ4djExLjgzaDEyLjk0YzAuNzQsMCwxLjQ4LDAuMzcsMS40OCwxLjQ4JiN4QTsmIzk7JiM5O3YxLjg1YzAsMC43NC0wLjM3LDEuNDgtMS40OCwxLjQ4aC0xMi45NHYyOS4yMWMwLDIuNTksMC4zNyw0LjA3LDEuNDgsNS4xOGMxLjExLDEuMTEsMi45NiwxLjQ4LDUuMTgsMS40OGMxLjg1LDAsMy4zMywwLDQuNDQtMC4zNyYjeEE7JiM5OyYjOTtjMC43NCwwLDEuMTEtMC4zNywxLjQ4LTAuMzdoMC43NGMwLjc0LDAsMS4xMSwwLjM3LDEuMTEsMS4xMXYxLjQ4YzAsMS4xMS0wLjM3LDEuNDgtMS4xMSwxLjg1JiN4QTsmIzk7JiM5O0M2MjYuNjYsMjYwLjQ0LDYyNC4wNywyNjAuODEsNjIxLjExLDI2MC44MXogTTY0MS4wOCwyNjAuNDRjLTAuNzQsMC0xLjQ4LTAuMzctMS40OC0xLjQ4di00Mi41MmMwLTAuNzQsMC4zNy0xLjQ4LDEuNDgtMS40OGgxLjg1JiN4QTsmIzk7JiM5O2MxLjExLDAsMS40OCwwLjM3LDEuNDgsMS40OGwwLjM3LDMuN2MyLjk2LTIuMjIsNS45Mi0zLjcsOS4yNC00LjgxYzMuMzMtMS4xMSw2LjI5LTEuODUsOS42MS0xLjg1YzQuNDQsMCw3Ljc2LDEuMTEsOS45OCwzLjMzJiN4QTsmIzk7JiM5O2MyLjIyLDIuMjIsMy4zMyw1LjU1LDMuMzMsMTAuMzV2MzEuNDNjMCwwLjc0LTAuMzcsMS40OC0xLjQ4LDEuNDhoLTIuMjJjLTAuNzQsMC0xLjQ4LTAuMzctMS40OC0xLjQ4di0yOS4yMSYjeEE7JiM5OyYjOTtjMC0zLjctMC43NC02LjY2LTIuMjItOC41Yy0xLjQ4LTEuODUtNC4wNy0yLjU5LTcuMDItMi41OWMtNS45MiwwLTExLjgzLDEuODUtMTcuMzgsNS41NXYzNC43NWMwLDAuNzQtMC4zNywxLjQ4LTEuNDgsMS40OCYjeEE7JiM5OyYjOTtDNjQzLjY2LDI2MC4wNyw2NDEuMDgsMjYwLjQ0LDY0MS4wOCwyNjAuNDR6IE03MDkuODUsMjYxLjU1Yy03LjAyLDAtMTIuNTctMS44NS0xNi4yNy01LjkyYy0zLjctNC4wNy01LjU1LTkuOTgtNS41NS0xOC4xMiYjeEE7JiM5OyYjOTtjMC03LjM5LDEuODUtMTMuMzEsNS41NS0xNy43NWMzLjctNC4wNyw4Ljg3LTYuMjksMTUuMTYtNi4yOWM1LjU1LDAsOS42MSwxLjQ4LDEyLjU3LDQuODFjMi45NiwyLjk2LDQuNDQsNy43Niw0LjQ0LDEzLjMxJiN4QTsmIzk7JiM5O2MwLDIuNTksMCw0LjA3LTAuMzcsNS41NWMtMC4zNywwLjc0LTAuNzQsMS40OC0xLjQ4LDEuNDhoLTMwLjMyYzAsNi4yOSwxLjQ4LDExLjA5LDQuMDcsMTQuMDVjMi41OSwyLjk2LDcuMDIsNC40NCwxMi41Nyw0LjQ0JiN4QTsmIzk7JiM5O2M0LjQ0LDAsOC41LTAuNzQsMTIuMi0yLjIyYzAuNzQtMC4zNywxLjQ4LTAuMzcsMS40OC0wLjM3YzAuMzcsMCwwLjM3LDAsMC43NCwwLjM3czAuMzcsMC4zNywwLjM3LDAuNzR2MS4xMSYjeEE7JiM5OyYjOTtjMCwxLjExLTAuMzcsMS40OC0xLjExLDEuODVDNzE5Ljg0LDI2MC40NCw3MTUuMDMsMjYxLjU1LDcwOS44NSwyNjEuNTV6IE03MjAuOTUsMjM0LjU2di0yLjk2YzAtNC40NC0xLjExLTcuNzYtMy4zMy05Ljk4JiN4QTsmIzk7JiM5O2MtMi4yMi0yLjIyLTUuMTgtMy4zMy05LjI0LTMuMzNjLTkuNjEsMC0xNC40Miw1LjU1LTE1LjE2LDE1LjloMjcuNzNDNzIwLjk1LDIzNC4xOSw3MjAuOTUsMjM0LjU2LDcyMC45NSwyMzQuNTZ6IE03MzguNjksMjYwLjQ0JiN4QTsmIzk7JiM5O2MtMC43NCwwLTEuNDgtMC4zNy0xLjQ4LTEuNDh2LTQyLjUyYzAtMC43NCwwLjM3LTEuNDgsMS40OC0xLjQ4aDEuODVjMS4xMSwwLDEuNDgsMC4zNywxLjQ4LDEuNDhsMC4zNyw1LjE4JiN4QTsmIzk7JiM5O2MyLjIyLTIuNTksNC40NC00LjQ0LDYuNjYtNS4xOGMyLjIyLTEuMTEsNC44MS0xLjQ4LDcuMzktMS40OGgyLjIyYzAuNzQsMCwxLjQ4LDAuMzcsMS40OCwxLjQ4djIuMjJjMCwwLjM3LDAsMC4zNy0wLjM3LDAuNzQmI3hBOyYjOTsmIzk7YzAsMC4zNy0wLjM3LDAuMzctMC43NCwwLjM3aC0zLjMzYy0yLjU5LDAtNS4xOCwwLjM3LTcuMzksMS40OGMtMi4yMiwxLjExLTQuMDcsMi41OS02LjI5LDQuODF2MzIuOTFjMCwwLjc0LTAuMzcsMS40OC0xLjQ4LDEuNDgmI3hBOyYjOTsmIzk7Qzc0MC41MywyNjAuNDQsNzM4LjY5LDI2MC40NCw3MzguNjksMjYwLjQ0eiBNNDc4Ljc3LDM1OS45Yy0wLjc0LDAtMS40OC0wLjM3LTEuNDgtMS40OHYtNDIuMTVjMC0wLjc0LDAuMzctMS40OCwxLjQ4LTEuNDhoMS44NSYjeEE7JiM5OyYjOTtjMS4xMSwwLDEuNDgsMC4zNywxLjQ4LDEuNDhsMC4zNywzLjdjMi45Ni0yLjIyLDUuOTItMy43LDkuMjQtNC44MWMzLjMzLTEuMTEsNi4yOS0xLjg1LDkuNjEtMS44NWM0LjQ0LDAsNy43NiwxLjExLDkuOTgsMy4zMyYjeEE7JiM5OyYjOTtjMi4yMiwyLjIyLDMuMzMsNS41NSwzLjMzLDEwLjM1djMxLjQzYzAsMC43NC0wLjM3LDEuNDgtMS40OCwxLjQ4aC0yLjU5Yy0wLjc0LDAtMS40OC0wLjM3LTEuNDgtMS40OHYtMjkuMjEmI3hBOyYjOTsmIzk7YzAtNC4wNy0wLjc0LTYuNjYtMi4yMi04LjVjLTEuNDgtMS44NS00LjA3LTIuNTktNy4wMi0yLjU5Yy01LjkyLDAtMTEuODMsMS44NS0xNy4zOCw1LjkydjM0Ljc1YzAsMC43NC0wLjM3LDEuNDgtMS40OCwxLjQ4JiN4QTsmIzk7JiM5O0M0ODEuMzUsMzU5LjksNDc4Ljc3LDM1OS45LDQ3OC43NywzNTkuOXogTTU0Ny41MywzNjEuMzdjLTcuMDIsMC0xMi41Ny0xLjg1LTE2LjI3LTUuOTJjLTMuNy00LjA3LTUuNTUtOS45OC01LjU1LTE4LjEyJiN4QTsmIzk7JiM5O2MwLTcuMzksMS44NS0xMy4zMSw1LjU1LTE3Ljc1YzMuNy00LjA3LDguODctNi4yOSwxNS4xNi02LjI5YzUuNTUsMCw5LjYxLDEuNDgsMTIuNTcsNC44MWMyLjk2LDIuOTYsNC40NCw3LjM5LDQuNDQsMTMuMzEmI3hBOyYjOTsmIzk7YzAsMi41OSwwLDQuMDctMC4zNyw1LjU1Yy0wLjM3LDAuNzQtMC43NCwxLjQ4LTEuNDgsMS40OGgtMzAuMzJjMCw2LjI5LDEuNDgsMTEuMDksNC4wNywxNC4wNWMyLjU5LDIuOTYsNy4wMiw0LjQ0LDEyLjU3LDQuNDQmI3hBOyYjOTsmIzk7YzQuNDQsMCw4LjUtMC43NCwxMi4yLTIuMjJjMC43NC0wLjM3LDEuNDgtMC4zNywxLjQ4LTAuMzdjMC4zNywwLDAuMzcsMCwwLjc0LDAuMzdzMC4zNywwLjM3LDAuMzcsMC43NHYxLjQ4JiN4QTsmIzk7JiM5O2MwLDEuMTEtMC4zNywxLjQ4LTEuMTEsMS44NUM1NTcuNTIsMzYwLjI2LDU1Mi43MSwzNjEuMzcsNTQ3LjUzLDM2MS4zN3ogTTU1OC42MywzMzQuMDF2LTIuOTZjMC00LjQ0LTEuMTEtNy43Ni0zLjMzLTkuOTgmI3hBOyYjOTsmIzk7Yy0yLjIyLTIuMjItNS4xOC0zLjMzLTkuMjQtMy4zM2MtOS42MSwwLTE0LjQyLDUuMTgtMTUuMTYsMTUuOUM1MzAuOSwzMzMuNjQsNTU4LjYzLDMzNC4wMSw1NTguNjMsMzM0LjAxeiBNNTg4Ljk0LDM2MC42MyYjeEE7JiM5OyYjOTtjLTMuNywwLTYuMjktMC43NC04LjEzLTIuOTZjLTEuODUtMS44NS0yLjk2LTQuNDQtMi45Ni04LjEzdi0zMC4zMmgtNy4wMmMtMC43NCwwLTEuNDgtMC4zNy0xLjQ4LTEuNDh2LTAuNzQmI3hBOyYjOTsmIzk7YzAtMC4zNywwLTAuNzQsMC4zNy0xLjExczAuMzctMC4zNywxLjExLTAuMzdsNy4zOS0wLjc0bDAuNzQtMTEuODNjMC0wLjM3LDAuMzctMC43NCwwLjM3LTEuMTFjMC4zNy0wLjM3LDAuMzctMC4zNywxLjExLTAuMzcmI3hBOyYjOTsmIzk7aDEuNDhjMC43NCwwLDEuNDgsMC4zNywxLjQ4LDEuNDh2MTEuODNoMTIuOTRjMC43NCwwLDEuNDgsMC4zNywxLjQ4LDEuNDh2MS44NWMwLDAuNzQtMC4zNywxLjQ4LTEuNDgsMS40OEg1ODMuNHYyOS41OCYjeEE7JiM5OyYjOTtjMCwyLjU5LDAuMzcsNC4wNywxLjQ4LDUuMThzMi45NiwxLjQ4LDUuMTgsMS40OGMxLjg1LDAsMy4zMywwLDQuNDQtMC4zN2MwLjc0LDAsMS4xMS0wLjM3LDEuNDgtMC4zN2gwLjc0JiN4QTsmIzk7JiM5O2MwLjc0LDAsMS4xMSwwLjM3LDEuMTEsMS4xMXYxLjQ4YzAsMS4xMS0wLjM3LDEuNDgtMS4xMSwxLjg1QzU5NC40OSwzNjAuMjcsNTkxLjksMzYwLjYzLDU4OC45NCwzNjAuNjN6IE02MTguMTUsMzU5LjkmI3hBOyYjOTsmIzk7Yy0wLjc0LDAtMS40OC0wLjM3LTEuODUtMS4xMWwtMTQuMDUtNDEuNzhjLTAuMzctMC43NC0wLjM3LTEuMTEtMC4zNy0xLjQ4YzAtMC43NCwwLjM3LTAuNzQsMS4xMS0wLjc0aDIuOTYmI3hBOyYjOTsmIzk7YzAuNzQsMCwxLjQ4LDAuMzcsMS40OCwxLjExbDEyLjIsMzguMDhsMTAuNzItMzguMDhjMC4zNy0wLjc0LDAuNzQtMS4xMSwxLjg1LTEuMTFoMy4zM2MwLjc0LDAsMS40OCwwLjM3LDEuODUsMS4xMWwxMC43MiwzOC4wOCYjeEE7JiM5OyYjOTtsMTIuNTctMzguNDVjMC4zNy0wLjc0LDAuNzQtMS4xMSwxLjQ4LTEuMTFoMi41OWMwLjc0LDAsMS4xMSwwLjM3LDEuMTEsMC43NGMwLDAuMzcsMCwwLjc0LTAuMzcsMS40OGwtMTQuNzksNDEuNzgmI3hBOyYjOTsmIzk7Yy0wLjM3LDAuNzQtMC43NCwxLjExLTEuODUsMS4xMWgtMi45NmMtMC43NCwwLTEuNDgtMC4zNy0xLjg1LTEuMTFsLTEwLjcyLTM4LjA4bC0xMC43MiwzOC4wOGMtMC4zNywwLjc0LTAuNzQsMS4xMS0xLjg1LDEuMTEmI3hBOyYjOTsmIzk7TDYxOC4xNSwzNTkuOUw2MTguMTUsMzU5Ljl6IE02OTIuNDcsMzYxLjM3Yy02LjY2LDAtMTEuODMtMi4yMi0xNS4xNi02LjI5Yy0zLjMzLTQuMDctNS41NS05Ljk4LTUuNTUtMTcuNzVzMS44NS0xMy4zMSw1LjU1LTE3Ljc1JiN4QTsmIzk7JiM5O2MzLjctNC40NCw4Ljg3LTYuMjksMTUuMTYtNi4yOWM2LjI5LDAsMTEuODMsMi4yMiwxNS4xNiw2LjI5YzMuNyw0LjA3LDUuNTUsOS45OCw1LjU1LDE3Ljc1cy0xLjg1LDEzLjMxLTUuNTUsMTcuNzUmI3hBOyYjOTsmIzk7QzcwNC4zLDM1OS4xNiw2OTkuMTIsMzYxLjM3LDY5Mi40NywzNjEuMzd6IE02OTIuNDcsMzU2LjU3YzEwLjM1LDAsMTUuNTMtNi4yOSwxNS41My0xOS4yM2MwLTEyLjk0LTUuMTgtMTkuMjMtMTUuNTMtMTkuMjMmI3hBOyYjOTsmIzk7Yy0xMC4zNSwwLTE1LjUzLDYuMjktMTUuNTMsMTkuMjNDNjc2Ljk0LDM1MC4yOCw2ODIuMTIsMzU2LjU3LDY5Mi40NywzNTYuNTd6IE03MjYuNDksMzU5LjljLTAuNzQsMC0xLjQ4LTAuMzctMS40OC0xLjQ4di00Mi4xNSYjeEE7JiM5OyYjOTtjMC0wLjc0LDAuMzctMS40OCwxLjQ4LTEuNDhoMS44NWMxLjExLDAsMS40OCwwLjM3LDEuNDgsMS40OGwwLjM3LDUuMThjMi4yMi0yLjU5LDQuNDQtNC40NCw2LjY2LTUuMTgmI3hBOyYjOTsmIzk7YzIuMjItMS4xMSw0LjgxLTEuNDgsNy4zOS0xLjQ4aDIuMjJjMC43NCwwLDEuNDgsMC4zNywxLjQ4LDEuNDh2Mi4yMmMwLDAuMzcsMCwwLjM3LTAuMzcsMC43NGMwLDAtMC4zNywwLjM3LTAuNzQsMC4zN2gtMy4zMyYjeEE7JiM5OyYjOTtjLTIuNTksMC01LjE4LDAuMzctNy4zOSwxLjQ4Yy0yLjIyLDEuMTEtNC4wNywyLjU5LTYuMjksNC44MXYzMi45MWMwLDAuNzQtMC4zNywxLjQ4LTEuNDgsMS40OCYjeEE7JiM5OyYjOTtDNzI4LjM0LDM2MC4yNiw3MjYuNDksMzU5LjksNzI2LjQ5LDM1OS45eiBNNzU3LjE3LDM1OS45Yy0wLjc0LDAtMS40OC0wLjM3LTEuNDgtMS40OHYtNjMuNTljMC0wLjc0LDAuMzctMS40OCwxLjQ4LTEuNDhoMi41OSYjeEE7JiM5OyYjOTtjMC43NCwwLDEuNDgsMC4zNywxLjQ4LDEuNDh2MzkuOTNsMjEuNDQtMTkuMjNjMC43NC0wLjc0LDEuNDgtMC43NCwyLjIyLTAuNzRoMy4zM2MwLjc0LDAsMS4xMSwwLjM3LDEuMTEsMC43NCYjeEE7JiM5OyYjOTtjMCwwLjM3LTAuMzcsMC43NC0xLjExLDEuNDhsLTIxLjgxLDE5LjIzbDIzLjY2LDIxLjgxYzAuMzcsMC4zNywwLjc0LDAuNzQsMC43NCwxLjExYzAsMC43NC0wLjM3LDAuNzQtMS4xMSwwLjc0aC0zLjcmI3hBOyYjOTsmIzk7Yy0wLjc0LDAtMS40OC0wLjM3LTEuODUtMC43NGwtMjIuOTItMjEuMDd2MjAuN2MwLDAuNzQtMC4zNywxLjQ4LTEuNDgsMS40OEw3NTcuMTcsMzU5Ljl6Ii8+JiN4YTs8L2c+JiN4YTs8L3N2Zz4=;" vertex="1" parent="1">
          <mxGeometry x="540" y="60" width="156.75" height="43" as="geometry" />
        </mxCell>
        <mxCell id="x_PVkYhebT0tfvJwBB1v-26" style="edgeStyle=orthogonalEdgeStyle;rounded=0;orthogonalLoop=1;jettySize=auto;html=1;entryX=0.25;entryY=1;entryDx=0;entryDy=0;" edge="1" parent="1" source="x_PVkYhebT0tfvJwBB1v-17" target="x_PVkYhebT0tfvJwBB1v-24">
          <mxGeometry relative="1" as="geometry" />
        </mxCell>
        <mxCell id="x_PVkYhebT0tfvJwBB1v-28" value="" style="shape=image;verticalLabelPosition=bottom;labelBackgroundColor=default;verticalAlign=top;aspect=fixed;imageAspect=0;editableCssRules=.*;image=data:image/svg+xml,PHN2ZyB4bWw6c3BhY2U9InByZXNlcnZlIiBzdHlsZT0iZW5hYmxlLWJhY2tncm91bmQ6bmV3IC0xNTMgLTQ2IDY1MiA2NTI7IiB2aWV3Qm94PSItMTMxLjUgMjEwLjcwMDAxMjIwNzAzMTI1IDYwMC4wOTk5MTQ1NTA3ODEyIDEyOS4wOTk5NDUwNjgzNTkzOCIgeT0iMHB4IiB4PSIwcHgiIHhtbG5zOnhsaW5rPSJodHRwOi8vd3d3LnczLm9yZy8xOTk5L3hsaW5rIiB4bWxucz0iaHR0cDovL3d3dy53My5vcmcvMjAwMC9zdmciIGlkPSJsYXllciIgdmVyc2lvbj0iMS4xIiB3aWR0aD0iNjAwLjA5OTkxNDU1MDc4MTIiIGhlaWdodD0iMTI5LjA5OTk0NTA2ODM1OTM4Ij4mI3hhOzxzdHlsZSB0eXBlPSJ0ZXh0L2NzcyI+JiN4YTsJLnN0MHtmaWxsOiMwMzMxM0Y7fSYjeGE7CS5zdDF7ZmlsbDojRjUzMjUxO30mI3hhOwkuc3Qye2ZpbGw6Izc3RDlFMjt9JiN4YTs8L3N0eWxlPiYjeGE7PHBhdGggZD0iTTYyLjcsMzIwLjJjMCwxMi4yLTguNSwxOS40LTE3LjUsMTkuNHMtMTcuMy03LTE3LjMtMTkuNHYtOTAuMWMwLTEyLjIsOC41LTE5LjQsMTcuNS0xOS40czE3LjMsNywxNy4zLDE5LjQmI3hBOyYjOTtWMjY0aC05di0zNC4xYzAtNi40LTQuMS05LjUtOC41LTkuNWMtNC4xLDAtOC4zLDMuMS04LjMsOS41djkwLjdjMCw2LjQsNC4yLDkuNiw4LjMsOS42YzQuNCwwLDguNS0zLjMsOC41LTkuNnYtMzQuMmg5VjMyMC4yeiYjeEE7JiM5OyBNMTAyLjUsMjMxLjdjMC02LjQtNC4xLTEwLTguOC0xMGgtOHY0OS4xaDhjNC42LDAsOC44LTMuOSw4LjgtMTAuNFYyMzEuN3ogTTExMS41LDMzNy41aC05di00Ny4xYzAtNi45LTQuMi0xMC40LTguOC0xMC40aC04djU3LjUmI3hBOyYjOTtoLTlWMjEyLjlIOTVjOC44LDAsMTYuNSw2LjEsMTYuNSwxOC40VjI2MWMwLDctMy42LDEyLjItOC41LDE0LjNjNSwyLjEsOC41LDcuOCw4LjUsMTUuMVYzMzcuNXogTTE1MS4zLDIyOS45JiN4QTsmIzk7YzAtNi40LTQuMS05LjUtOC41LTkuNWMtNC4xLDAtOC4zLDMuMS04LjMsOS41djkwLjdjMCw2LjQsNC4yLDkuNiw4LjMsOS42YzQuNCwwLDguNS0zLjMsOC41LTkuNlYyMjkuOXogTTE2MC4zLDMyMC4yJiN4QTsmIzk7YzAsMTIuMi04LjUsMTkuNC0xNy41LDE5LjRzLTE3LjMtNy0xNy4zLTE5LjR2LTkwLjFjMC0xMi4yLDguNS0xOS40LDE3LjUtMTkuNHMxNy4zLDcsMTcuMywxOS40VjMyMC4yeiBNMjA4LjMsMjUwLjloLTl2LTIwLjcmI3hBOyYjOTtjMC01LjItMy4xLTkuNi04LjYtOS42Yy02LjEsMC04LjEsNS04LjEsMTBjMCw1LjIsMS44LDEyLjIsMy40LDE3bDE4LjEsNTEuNWMyLjEsNi4yLDQuMSwxNC41LDQuMSwyMC45YzAsMTMuNy04LjYsMTkuOC0xNy4xLDE5LjgmI3hBOyYjOTtjLTguOCwwLTE3LjUtNi40LTE3LjUtMTkuMXYtMjEuMmg5djIwLjljMCw1LjIsMy4zLDkuNiw4LjYsOS42YzUuOSwwLDguMS01LDguMS0xMGMwLTUuMi0xLjgtMTMuMS0zLjYtMTcuOGwtMTguMy01MS41JiN4QTsmIzk7Yy0yLjEtNi4yLTMuOS0xMy43LTMuOS0yMC4xYzAtMTMuOSw4LjYtMTkuOCwxNy4xLTE5LjhjOC44LDAsMTcuNiw2LjQsMTcuNiwxOS4xTDIwOC4zLDI1MC45eiBNMjU1LjUsMjUwLjloLTl2LTIwLjcmI3hBOyYjOTtjMC01LjItMy4xLTkuNi04LjYtOS42Yy02LjEsMC04LjEsNS04LjEsMTBjMCw1LjIsMS44LDEyLjIsMy40LDE3bDE4LjEsNTEuNWMyLjEsNi4yLDQuMSwxNC41LDQuMSwyMC45YzAsMTMuNy04LjYsMTkuOC0xNy4xLDE5LjgmI3hBOyYjOTtjLTguOCwwLTE3LjUtNi40LTE3LjUtMTkuMXYtMjEuMmg5djIwLjljMCw1LjIsMy4zLDkuNiw4LjYsOS42YzUuOSwwLDguMS01LDguMS0xMGMwLTUuMi0xLjgtMTMuMS0zLjYtMTcuOGwtMTguMy01MS41JiN4QTsmIzk7Yy0yLjEtNi4yLTMuOS0xMy43LTMuOS0yMC4xYzAtMTMuOSw4LjYtMTkuOCwxNy4xLTE5LjhjOC44LDAsMTcuNiw2LjQsMTcuNiwxOS4xTDI1NS41LDI1MC45eiBNMjk0LjUsMjkwLjMmI3hBOyYjOTtjMC02LjktNC4xLTEwLjYtOC42LTEwLjZoLTguMXY0OC45aDhjNC43LDAsOC44LTMuNCw4LjgtMTBMMjk0LjUsMjkwLjNMMjk0LjUsMjkwLjN6IE0yOTQuNSwyMzEuN2MwLTYuNS00LjEtMTAtOC42LTEwaC04LjF2NDkuNGg4JiN4QTsmIzk7YzQuNiwwLDguOC0zLjcsOC44LTEwLjNMMjk0LjUsMjMxLjdMMjk0LjUsMjMxLjd6IE0zMDMuNiwzMjAuNWMwLDEwLjktNy43LDE3LTE1LjgsMTdoLTE5LjFWMjEyLjloMTguOWM4LjEsMCwxNS45LDYuMSwxNS45LDE3LjEmI3hBOyYjOTt2MzAuN2MwLDcuMy0zLjQsMTIuNC04LjMsMTQuM2M0LjksMi4xLDguMyw3LDguMywxNC4yTDMwMy42LDMyMC41TDMwMy42LDMyMC41eiBNMzE3LjYsMjEyLjl2MTI0LjdoMzAuOHYtOC45aC0yMS44di00OS42aDE1LjgmI3hBOyYjOTt2LTguOWgtMTUuOHYtNDguNWgyMS44di04LjlIMzE3LjZ6IE0zNzUuMywyNDcuNmwxLjMtMTUuOWwxLjEsMTUuOWw2LjIsNTQuOWgtMTQuN0wzNzUuMywyNDcuNnogTTM3MS4yLDIxMi45bC0xNC44LDEyNC43aDguOSYjeEE7JiM5O2wzLjEtMjYuNGgxNi4ybDIuOSwyNi40aDkuMkwzODIsMjEyLjlMMzcxLjIsMjEyLjl6IE00NTYsMjEyLjlsLTE2LDg3LjZsLTIuMSwxNC41bC0yLjItMTQuNWwtMTYtODcuNmgtMTIuNHYxMjQuN2g5di04Ni4xJiN4QTsmIzk7bC0wLjItMTUuM2wyLjMsMTUuN2wxNS44LDg1LjdoNy41bDE1LjgtODUuN2wyLjMtMTUuN2wtMC4yLDE1LjN2ODYuMWg5VjIxMi45TDQ1NiwyMTIuOXoiIGNsYXNzPSJzdDAiLz4mI3hhOzxwYXRoIGQ9Ik0tODMuMSwyOTguOGgtNDguNHYzOC43SC02Ljh2LTM4LjdoLTQ4LjRsLTE0LTIzLjZMLTgzLjEsMjk4Ljh6IiBjbGFzcz0ic3QxIi8+JiN4YTs8cGF0aCBkPSJNLTEzMS41LDIxMi45djM4LjdoNDguNGwxMy45LDIzLjZsMTQtMjMuNmg0OC40di0zOC43SC0xMzEuNXoiIGNsYXNzPSJzdDIiLz4mI3hhOzwvc3ZnPg==;" vertex="1" parent="1">
          <mxGeometry x="770" y="70" width="153.49" height="33" as="geometry" />
        </mxCell>
        <mxCell id="x_PVkYhebT0tfvJwBB1v-29" style="edgeStyle=orthogonalEdgeStyle;rounded=0;orthogonalLoop=1;jettySize=auto;html=1;entryX=0.5;entryY=1;entryDx=0;entryDy=0;" edge="1" parent="1" source="x_PVkYhebT0tfvJwBB1v-17" target="x_PVkYhebT0tfvJwBB1v-28">
          <mxGeometry relative="1" as="geometry" />
        </mxCell>
        <mxCell id="x_PVkYhebT0tfvJwBB1v-30" value="" style="sketch=0;points=[[0,0,0],[0.25,0,0],[0.5,0,0],[0.75,0,0],[1,0,0],[0,1,0],[0.25,1,0],[0.5,1,0],[0.75,1,0],[1,1,0],[0,0.25,0],[0,0.5,0],[0,0.75,0],[1,0.25,0],[1,0.5,0],[1,0.75,0]];points=[[0,0,0],[0.25,0,0],[0.5,0,0],[0.75,0,0],[1,0,0],[0,1,0],[0.25,1,0],[0.5,1,0],[0.75,1,0],[1,1,0],[0,0.25,0],[0,0.5,0],[0,0.75,0],[1,0.25,0],[1,0.5,0],[1,0.75,0]];outlineConnect=0;fontColor=#232F3E;fillColor=#E7157B;strokeColor=#ffffff;dashed=0;verticalLabelPosition=bottom;verticalAlign=top;align=center;html=1;fontSize=12;fontStyle=0;aspect=fixed;shape=mxgraph.aws4.resourceIcon;resIcon=mxgraph.aws4.cloudwatch_2;" vertex="1" parent="1">
          <mxGeometry x="1163" y="27" width="78" height="78" as="geometry" />
        </mxCell>
        <mxCell id="x_PVkYhebT0tfvJwBB1v-34" value="" style="sketch=0;points=[[0,0,0],[0.25,0,0],[0.5,0,0],[0.75,0,0],[1,0,0],[0,1,0],[0.25,1,0],[0.5,1,0],[0.75,1,0],[1,1,0],[0,0.25,0],[0,0.5,0],[0,0.75,0],[1,0.25,0],[1,0.5,0],[1,0.75,0]];outlineConnect=0;fontColor=#232F3E;fillColor=#DD344C;strokeColor=#ffffff;dashed=0;verticalLabelPosition=bottom;verticalAlign=top;align=center;html=1;fontSize=12;fontStyle=0;aspect=fixed;shape=mxgraph.aws4.resourceIcon;resIcon=mxgraph.aws4.secrets_manager;" vertex="1" parent="1">
          <mxGeometry x="1270" y="27" width="78" height="78" as="geometry" />
        </mxCell>
        <mxCell id="x_PVkYhebT0tfvJwBB1v-40" value="S3 For Object Storage" style="text;html=1;align=center;verticalAlign=middle;resizable=0;points=[];autosize=1;strokeColor=none;fillColor=none;" vertex="1" parent="1">
          <mxGeometry x="1270" y="788" width="140" height="30" as="geometry" />
        </mxCell>
        <mxCell id="x_PVkYhebT0tfvJwBB1v-41" value="&lt;div&gt;NAT Gateway&lt;/div&gt;" style="text;html=1;align=center;verticalAlign=middle;resizable=0;points=[];autosize=1;strokeColor=none;fillColor=none;" vertex="1" parent="1">
          <mxGeometry x="1230" y="278" width="100" height="30" as="geometry" />
        </mxCell>
        <mxCell id="x_PVkYhebT0tfvJwBB1v-43" style="edgeStyle=orthogonalEdgeStyle;rounded=0;orthogonalLoop=1;jettySize=auto;html=1;" edge="1" parent="1" source="x_PVkYhebT0tfvJwBB1v-35" target="UEzPUAAOIrF-is8g5C7q-15">
          <mxGeometry relative="1" as="geometry" />
        </mxCell>
        <mxCell id="x_PVkYhebT0tfvJwBB1v-47" value="&lt;div&gt;Cloudwatch&lt;/div&gt;" style="text;html=1;align=center;verticalAlign=middle;resizable=0;points=[];autosize=1;strokeColor=none;fillColor=none;" vertex="1" parent="1">
          <mxGeometry x="1151" y="105" width="90" height="30" as="geometry" />
        </mxCell>
        <mxCell id="x_PVkYhebT0tfvJwBB1v-48" value="&lt;div&gt;Secret Manager&lt;/div&gt;" style="text;html=1;align=center;verticalAlign=middle;resizable=0;points=[];autosize=1;strokeColor=none;fillColor=none;" vertex="1" parent="1">
          <mxGeometry x="1254" y="110" width="110" height="30" as="geometry" />
        </mxCell>
        <mxCell id="x_PVkYhebT0tfvJwBB1v-49" value="&lt;div&gt;External Partner APIs&lt;/div&gt;" style="text;html=1;align=center;verticalAlign=middle;resizable=0;points=[];autosize=1;strokeColor=none;fillColor=none;" vertex="1" parent="1">
          <mxGeometry x="600" y="135" width="140" height="30" as="geometry" />
        </mxCell>
      </root>
    </mxGraphModel>
  </diagram>
</mxfile>
